<?xml version="1.0" encoding="UTF-8" standalone="no"?>
<!-- Created with Inkscape (http://www.inkscape.org/) -->

<svg
   version="1.1"
   id="svg1"
   width="896"
   height="1196"
   viewBox="0 0 896 1196"
   sodipodi:docname="houseMap2.svg"
   xml:space="preserve"
   inkscape:version="1.4.2 (f4327f4, 2025-05-13)"
   xmlns:inkscape="http://www.inkscape.org/namespaces/inkscape"
   xmlns:sodipodi="http://sodipodi.sourceforge.net/DTD/sodipodi-0.dtd"
   xmlns="http://www.w3.org/2000/svg"
   xmlns:svg="http://www.w3.org/2000/svg"><defs
     id="defs1"><clipPath
       clipPathUnits="userSpaceOnUse"
       id="clipPath101"><path
         id="path102"
         style="fill:#ff0000;fill-opacity:1;fill-rule:nonzero;stroke:none;stroke-width:9.96729"
         d="M 401.35013,6511.3823 V 5254.5508 c 12.10086,2.4083 24.73667,3.1827 36.80381,5.6949 10.97329,-11.5747 23.62689,-21.761 32.91746,-34.7348 6.49754,-9.0736 2.83402,-40.6115 3.75033,-52.7946 v -58.8016 c -2e-5,-21.0873 7e-5,-42.1803 0,-63.2677 -10e-5,-28.2791 6.1e-4,-56.559 0,-84.838 -7.2e-4,-28.8935 0.005,-57.7778 0,-86.6713 -0.005,-25.0745 -0.009,-50.1486 -0.0388,-75.223 -0.0378,-28.8973 -0.0885,-57.7941 -0.27201,-86.6909 -0.22226,-30.1228 -0.43119,-60.2503 -1.51568,-90.3573 -1.26664,-32.0741 -2.87423,-64.1704 -6.76226,-96.0523 -3.65542,-30.5801 -8.26842,-61.1301 -8.91919,-91.9761 -0.29379,-39.8654 -0.75145,-79.7148 -1.59341,-119.5729 -1.28248,-57.1073 -2.70804,-114.2495 -6.82056,-171.2362 -2.92834,-35.82 -7.99424,-71.6588 -7.13147,-107.6566 4.30544,-45.8437 15.38127,-90.7103 25.74713,-135.4678 18.3523,-73.2211 38.27466,-146.3047 67.56434,-216.0151 35.28361,-83.9761 -43.04859,-121.0523 -83.44012,-50.3763 0.20117,-22.6688 -0.13242,-45.3509 0.69952,-68.0069 0.39011,-29.6982 4.60312,-59.0681 8.04476,-88.5046 4.80182,-39.5265 5.98457,-79.3181 6.83999,-119.0853 0.98008,-57.6293 1.29278,-115.2773 1.55454,-172.9135 0.0239,-48.3889 1.14613,-96.765 -1.28249,-145.1023 -4.16405,-61.6752 -11.95476,-123.0223 -17.76066,-184.5568 -2.64672,-30.221 -1.40369,-15.6062 -3.69204,-43.8232 -0.0109,-0.1318 -0.0279,-0.2586 -0.0388,-0.3904 6.93635,-11.9254 11.29633,-28.2615 11.15385,-48.972 -0.23281,-33.8425 -0.90348,-67.6898 -0.69952,-101.5326 0.5458,-90.5852 4.40886,-258.0645 6.21817,-342.7651 4.45649,-208.6255 8.88307,-417.2364 12.94158,-625.8701 3.56638,-288.52 12.55108,-576.9192 21.41383,-865.30934 4.36316,-130.95128 7.53862,-261.92053 7.73385,-392.9457 -0.67565,-23.71165 -0.20366,-47.4872 -0.0975,-71.24478 116.40572,-4.10505 232.63778,-13.90286 348.78123,-22.23379 19.76986,-1.3091 39.53561,-2.6881 59.30583,-4.07609 11.27845,14.06462 31.82685,25.44014 61.63765,28.26005 245.57141,23.23235 492.56071,16.53305 738.81621,15.52451 89.085,-0.35948 178.1596,-0.14978 267.2454,-0.24964 541.0289,9.10881 1081.9643,23.88041 1622.9238,36.41225 56.5718,1.28813 113.126,2.59224 169.6979,3.88138 15.436,0.34949 28.4553,-1.85731 39.0385,-5.83155 68.1569,1.4429 136.3157,2.79195 204.4807,3.93929 104.7245,1.68755 209.4569,2.52234 314.1927,3.08153 76.3303,0.36947 152.6726,0.48929 229.0036,0.58915 68.0128,0.0999 136.0211,0.17974 204.0339,0.17974 10.6337,0.16975 21.2731,0.33951 31.907,0.50926 37.7064,0.58915 60.8743,-14.02967 69.3326,-32.12146 205.8349,-2.99666 411.667,-6.57348 617.4841,-9.71293 121.7129,-1.377 243.4246,-3.34615 365.1428,-4.13501 211.4078,-1.36602 414.775,-0.88871 625.8592,3.15942 232.8741,4.46454 465.5879,15.06518 698.3591,22.95575 268.3764,7.11169 536.8669,5.04269 805.2923,3.17839 181.3736,-1.35903 362.7327,-2.30666 544.1097,-2.9637 -0.1293,2.85286 -0.2527,5.70872 -0.389,8.56159 -14.6509,308.03971 -11.2077,190.05565 -29.0699,549.22329 -11.5652,232.55309 -22.8262,495.82669 -30.6634,728.53449 -3.841,114.0508 -6.5663,228.1315 -9.8519,342.1995 -2.3152,100.8482 -4.6414,201.7013 -6.9566,302.5499 -2.3034,100.334 43.3555,155.1507 93.428,163.4546 -4.9377,313.2991 -0.6955,626.7018 2.5845,940.0053 2.4301,255.0384 4.8411,510.1172 1.9043,765.1609 -1.1537,57.845 -0.2885,115.9652 -6.5485,173.5181 -29.0015,25.4499 -50.1642,71.6838 -50.5227,138.7054 -1.1755,219.7555 7.7143,439.4061 17.1777,658.9087 10.9049,256.8356 29.3343,513.2642 46.3254,769.7441 6.3846,97.1768 3.4022,50.8 9.0358,139.1734 4.0448,63.4512 25.6828,107.0202 53.8649,131.4307 v 292.3752 z m 0,-5731.75482 V 369.46073 c 1.95377,-0.002 3.91474,0 5.8684,0 0.14805,23.0506 0.2155,46.1052 0.23321,69.1568 -0.16575,113.70127 -2.6007,227.36959 -6.10158,341.00995 z" /></clipPath><clipPath
       clipPathUnits="userSpaceOnUse"
       id="clipPath257"><path
         id="path258"
         style="fill:#ff0000;fill-opacity:1;fill-rule:nonzero;stroke:none;stroke-width:9.96729"
         d="m 8564.0048,10962.863 v -5.461 c 1.5027,-0.09 3.005,-0.342 4.4887,-0.761 v 5.188 c -1.4798,0.332 -2.9818,0.676 -4.4887,1.034 z" /></clipPath><clipPath
       clipPathUnits="userSpaceOnUse"
       id="clipPath264"><path
         id="path265"
         style="fill:#ff0000;fill-opacity:1;fill-rule:nonzero;stroke:none;stroke-width:9.96729"
         d="m 1578.0229,11602.619 c -348.2639,-17.139 -696.35542,-39.61 -1044.01193,-65.861 -48.01701,-3.626 -96.00141,-7.766 -143.98958,-11.8 v -299.956 H 8449.5904 c 3.8786,20.612 10.1442,38.373 18.1299,53.283 -0.4169,21.769 -1.0255,43.535 -1.8072,65.296 -33.5897,-7.35 -35.581,-1.263 -31.7515,35.222 -0.4587,0.151 -0.9183,0.297 -1.3797,0.449 -13.4304,4.404 1.2702,28.337 2.0403,42.497 0.8695,15.989 1.9159,31.954 2.876,47.938 0.7093,8.03 1.2906,16.074 1.7877,24.125 -186.5039,-18.756 -388.9251,-19.615 -570.1677,-22.467 -480.4449,-7.561 -961.0623,-6.117 -1441.5475,-6.495 -675.7251,2.203 -1351.4675,-3.045 -2027.1634,4.798 -240.7733,2.076 -481.4288,9.813 -721.9883,19.737 -73.4812,3.097 -146.9536,6.349 -220.4731,8.386 -43.7911,1.17 -87.5937,1.5 -131.3977,1.736 -50.1685,0.212 -100.3305,0.272 -150.4993,0.312 -44.4754,0.03 -88.9626,0.03 -133.4381,0.04 -63.311,0.01 -108.0031,18.887 -134.0794,45.54 -46.3685,0 -103.6959,2.35 -143.8535,3.627 -269.3769,7.293 -538.0485,28.896 -806.8275,47.139 -32.5193,2.19 -65.0376,4.259 -97.567,6.202 -0.5949,-26.981 -27.5113,-53.672 -80.7391,-53.672 h -49.9397 -71.0426 c -53.3965,0 -80.3098,26.857 -80.7391,53.925 z" /></clipPath><clipPath
       clipPathUnits="userSpaceOnUse"
       id="clipPath283"><path
         id="path284"
         style="fill:#ff0000;fill-opacity:1;fill-rule:nonzero;stroke:none;stroke-width:9.96729"
         d="m 8584.9911,8259.7087 v -5.7924 c 0.1363,0 0.2726,0 0.4079,0 1.0369,0 2.0737,-0.04 3.1091,-0.1168 v 5.9094 z" /></clipPath><clipPath
       clipPathUnits="userSpaceOnUse"
       id="clipPath295"><path
         id="path295"
         style="fill:#ff0000;fill-opacity:1;fill-rule:nonzero;stroke:none;stroke-width:9.96729"
         d="m 8582.7371,7391.2988 v -2.3598 c 1.8598,0.8508 3.8178,1.3039 5.7713,1.3652 v 0.9946 z" /></clipPath><clipPath
       clipPathUnits="userSpaceOnUse"
       id="clipPath329"><path
         id="path330"
         style="fill:#ff0000;fill-opacity:1;fill-rule:nonzero;stroke:none;stroke-width:9.96729"
         d="m 8687.4355,10678.236 c 0.4418,-0.33 0.8278,-0.726 1.1465,-1.19 0.1004,-0.143 0.1711,-0.262 0.2328,-0.369 v 1.559 z m 1.3797,-19.347 c -0.2488,-1.727 -1.3213,-2.386 -2.1958,-2.106 -0.1582,-1.105 -0.3671,-2.207 -0.6029,-3.296 h 2.7982 z" /></clipPath><clipPath
       clipPathUnits="userSpaceOnUse"
       id="clipPath332"><path
         id="path332"
         style="fill:#ff0000;fill-opacity:1;fill-rule:nonzero;stroke:none;stroke-width:9.96729"
         d="m 8681.9947,10805.122 v -2.652 c 0.2467,0.172 0.5601,0.284 0.9521,0.312 0.02,0.326 0.06,0.648 0.08,0.975 0.04,0.342 0.01,0.69 0.04,1.034 -4e-4,0.105 0,0.223 0,0.331 z m 6.3154,0 c 0.03,-0.117 0.07,-0.245 0.099,-0.37 0.03,-0.149 0.07,-0.298 0.1,-0.448 v 0.818 z m -6.3154,-31.477 v -5.539 h 0.1164 c -0.08,0.483 -0.08,1.105 -0.08,1.287 0.03,1.4 0.07,2.813 0.1164,4.213 -0.05,0.01 -0.1055,0.02 -0.1552,0.04 z m 6.5097,-4.272 c -0.01,-0.07 -0.03,-0.144 -0.04,-0.214 -0.04,-0.247 0.05,-0.628 -0.04,-0.839 0,0 0,-0.03 0,-0.04 h -0.02 v -0.02 l -0.02,-0.02 -0.02,-0.02 -0.02,-0.02 h -0.02 c -0.01,0 -0.05,-0.02 -0.06,-0.02 l -0.02,-0.02 v -0.02 l -0.02,-0.02 v -0.02 h 0.2716 z" /></clipPath><clipPath
       clipPathUnits="userSpaceOnUse"
       id="clipPath343"><path
         id="path344"
         style="fill:#ff0000;fill-opacity:1;fill-rule:nonzero;stroke:none;stroke-width:9.96729"
         d="m 8572.7491,9911.3002 v -2.2233 c 0.05,0.2886 0.1035,0.5712 0.1552,0.8578 0.04,0.1777 0.06,0.3485 0.1,0.5262 0.02,0.06 0.04,0.1348 0.06,0.1947 h -0.02 c 0.06,0.2547 0.1473,0.4694 0.2527,0.6431 z m 3.6338,0 0.02,-0.02 h 0.02 c 0.3831,-0.3614 0.4756,-0.4074 0.7581,-0.8777 0.6089,-1.0118 0.791,-2.212 0.991,-3.3545 0.06,-0.3985 0.1253,-0.7899 0.1751,-1.1897 0.06,-0.4454 0.1114,-0.8987 0.1552,-1.3457 v 6.787 z" /></clipPath><clipPath
       clipPathUnits="userSpaceOnUse"
       id="clipPath351"><path
         id="path352"
         style="fill:#ff0000;fill-opacity:1;fill-rule:nonzero;stroke:none;stroke-width:9.96729"
         d="m 8573.0017,9788.0608 v -0.5463 c 0.3194,-0.01 0.6328,-0.01 0.9522,-0.04 0.09,0.1 0.2059,0.1907 0.3502,0.2726 -8e-4,0.02 0,0.04 0,0.06 0.02,0.1 0.04,0.1788 0.06,0.2537 z m 3.7115,0 c 0.1533,-0.2427 0.1334,-0.5762 -0.1552,-0.8578 0.01,-0.07 0,-0.1348 0,-0.1947 0.6547,-0.1758 1.304,-0.3964 1.9432,-0.6631 v 1.7163 z" /></clipPath><clipPath
       clipPathUnits="userSpaceOnUse"
       id="clipPath359"><path
         id="path360"
         style="fill:#ff0000;fill-opacity:1;fill-rule:nonzero;stroke:none;stroke-width:9.96729"
         d="m 8573.9927,9609.0428 v -6.2019 c 0.1452,1.3496 0.2765,2.7043 0.389,4.0566 -0.1194,0.5722 -0.2269,1.1409 -0.3303,1.7163 -0.02,0.1388 -0.04,0.2916 -0.06,0.4294 z" /></clipPath><clipPath
       clipPathUnits="userSpaceOnUse"
       id="clipPath366"><path
         id="path367"
         style="fill:#ff0000;fill-opacity:1;fill-rule:nonzero;stroke:none;stroke-width:9.96729"
         d="m 282.99108,4423.8208 v -9.0104 c 0.0677,0.1358 0.15152,0.2586 0.2332,0.3705 0.0199,1.4152 0.0657,2.8371 0.11661,4.2516 0.0557,1.4707 0.11262,2.9224 0.2332,4.3882 z m 4.76079,0 c -7.5e-4,-0.01 -1.7e-4,-0.05 0,-0.06 4.4e-4,-0.01 -5e-5,-0.05 0,-0.06 -0.12765,-1.4746 -0.19689,-2.9679 -0.25261,-4.4467 -0.005,-0.1308 -0.0149,-0.2586 -0.0199,-0.3904 0.43696,-0.2996 0.81672,-0.8368 1.02988,-1.5993 v 6.553 z m 0.33031,-53.9258 c 0.0139,-2.309 0.0149,-4.6137 0.0199,-6.9235 0.003,-1.9342 -6.5e-4,-3.8777 0,-5.8119 5e-4,-1.7877 -9e-5,-3.5757 0,-5.3634 0.007,-0.7199 0.0189,-1.4487 -0.0388,-2.1648 h 0.44691 v 20.1271 c -0.14416,0.03 -0.28922,0.07 -0.42751,0.1368 z" /></clipPath><clipPath
       clipPathUnits="userSpaceOnUse"
       id="clipPath369"><path
         id="path369"
         style="fill:#ff0000;fill-opacity:1;fill-rule:nonzero;stroke:none;stroke-width:9.96729"
         d="m 287.42153,4285.5056 c 0.0269,-0.5902 0.0547,-1.2488 0.0587,-1.3458 0.01,-0.2616 0.0308,-0.5372 0.0388,-0.7998 0.31002,0.1807 0.65575,0.2895 0.99103,0.3315 v 1.8138 z m 1.08818,-29.6251 c -0.6247,-0.4404 -1.16519,-0.7749 -1.61284,-1.0142 h 1.61284 z" /></clipPath><clipPath
       clipPathUnits="userSpaceOnUse"
       id="clipPath374"><path
         id="path375"
         style="fill:#ff0000;fill-opacity:1;fill-rule:nonzero;stroke:none;stroke-width:9.96729"
         d="m 288.1988,4221.6918 c 0.15232,-0.5911 0.25828,-1.1741 0.31091,-1.7748 v 1.7748 z m 0.31091,-11.3703 c -0.003,-0.07 -0.0159,-0.1458 -0.0199,-0.2147 v -0.02 l 0.0199,-0.02 z m -6.50965,-15.9534 v -1.6188 c 0.0338,-0.01 0.0637,-0.03 0.0975,-0.04 -0.0328,0.5502 -0.0627,1.1086 -0.0975,1.6578 z m 6.50965,-12.0139 c -0.1562,-0.4054 -0.32006,-0.8048 -0.46641,-1.2092 -0.18714,-0.5173 -0.40344,-0.9317 -0.66072,-1.2677 0.0637,-0.1059 0.0866,-0.1917 0.0975,-0.2536 l 0.0199,-0.02 v -0.02 -0.02 h -0.0199 v -0.02 -0.02 h -0.0199 v -0.02 h -0.0199 -0.0199 l -0.0199,-0.02 c -0.0716,-0.01 -0.19262,-5e-4 -0.34981,0.02 -0.20624,-0.1997 -0.42114,-0.3604 -0.64122,-0.4683 0.0259,-0.1258 0.0527,-0.2446 0.0776,-0.3704 h 2.02092 z m -6.50965,-2.5744 v -1.1116 h 0.23321 c -0.0766,0.3735 -0.15511,0.738 -0.23321,1.1116 z" /></clipPath><clipPath
       clipPathUnits="userSpaceOnUse"
       id="clipPath384"><path
         id="path385"
         style="fill:#ff0000;fill-opacity:1;fill-rule:nonzero;stroke:none;stroke-width:9.96729"
         d="m 287.73244,4737.624 c 0.0269,-0.2386 0.0507,-0.4463 0.0587,-0.5462 0.0846,-1.143 0.0895,-2.2889 0.0776,-3.4325 0.19769,-0.04 0.41309,-0.08 0.64122,-0.1168 v 4.0957 z m -4.50818,-36.5486 c -0.0865,-0.04 -0.16445,-0.08 -0.2332,-0.1168 v -0.5463 c 0.0806,0.08 0.15998,0.1478 0.2332,0.2147 0.003,0.1159 10e-4,0.2337 0,0.3505 -5.3e-4,0.03 0.002,0.07 0,0.1 z m 5.26602,-21.7069 v -0.02 h -0.0199 c 0.002,-0.01 -0.002,-0.01 0,-0.02 0.0159,-0.04 0.0229,-0.08 0.0388,-0.1168 v 0.1557 z" /></clipPath><clipPath
       clipPathUnits="userSpaceOnUse"
       id="clipPath387"><path
         id="path387"
         style="fill:#ff0000;fill-opacity:1;fill-rule:nonzero;stroke:none;stroke-width:9.96729"
         d="m 282.00006,4805.1238 v -4.2127 c 0.16794,0.1119 0.33877,0.2207 0.50521,0.3316 0.007,1.2768 0.009,2.5457 0.0199,3.8225 1.3e-4,0.02 -1.3e-4,0.04 0,0.06 z m 5.84896,0 c 6.8e-4,-0.01 -6.5e-4,-0.03 0,-0.04 0.17491,-0.01 0.34683,-0.04 0.54412,-0.06 0.0368,0 0.0826,-0.01 0.1166,-0.02 v 0.1168 z m -5.84896,-30.5612 v -6.4554 h 0.66072 c -0.0726,1.7712 -0.10705,3.6685 -0.13601,5.4998 -0.18127,0.3185 -0.34423,0.6381 -0.52461,0.9556 z m 6.50965,-3.647 c -0.10635,-0.05 -0.22952,-0.1009 -0.34981,-0.1368 -0.30882,-0.2437 -0.75752,-0.2976 -1.39909,-0.1757 0.0229,-0.8558 0.0607,-1.7084 0.0975,-2.4964 h 1.65171 z" /></clipPath></defs><sodipodi:namedview
     id="namedview1"
     pagecolor="#ffffff"
     bordercolor="#111111"
     borderopacity="1"
     inkscape:showpageshadow="0"
     inkscape:pageopacity="0"
     inkscape:pagecheckerboard="1"
     inkscape:deskcolor="#d1d1d1"
     inkscape:zoom="0.5"
     inkscape:cx="321"
     inkscape:cy="481"
     inkscape:window-width="1920"
     inkscape:window-height="974"
     inkscape:window-x="-11"
     inkscape:window-y="-11"
     inkscape:window-maximized="1"
     inkscape:current-layer="layer3" /><g
     inkscape:groupmode="layer"
     id="layer3"
     inkscape:label="Habitaciones"
     sodipodi:insensitive="true"
     style="display:inline"><rect
       style="display:inline;fill:#ffffff"
       id="rect4"
       width="299.44675"
       height="152.16841"
       x="360.14151"
       y="954.43256"
       inkscape:label="Room 1" /><rect
       style="display:inline;fill:#ffffff"
       id="rect5"
       width="391.75101"
       height="261.98096"
       x="234.31837"
       y="689.12384"
       inkscape:label="Room 2" /><rect
       style="fill:#ffffff"
       id="rect6"
       width="178.1796"
       height="206.65578"
       x="627.28979"
       y="744.85577"
       inkscape:label="Room 3" /><path
       style="fill:#ffffff"
       d="m 537.7932,506.46939 264.01496,0.8136 1.22041,233.50477 -175.33197,1.2204 -1.22041,-109.02313 -87.46258,0.40681 z"
       id="path6"
       inkscape:label="Room 4" /><rect
       style="fill:#ffffff"
       id="rect7"
       width="85.835373"
       height="53.291157"
       x="539.42041"
       y="633.79865"
       inkscape:label="Room 5" /><rect
       style="fill:#ffffff"
       id="rect8"
       width="264.42178"
       height="264.01495"
       x="538.60681"
       y="240.82721"
       inkscape:label="Room 6" /><rect
       style="fill:#ffffff"
       id="rect9"
       width="162.31429"
       height="58.579594"
       x="640.71429"
       y="180.62041"
       inkscape:label="Room 7" /><rect
       style="fill:#ffffff"
       id="rect10"
       width="173.29797"
       height="445.85574"
       x="364.49524"
       y="240.82721"
       inkscape:label="Room 8" /><rect
       style="fill:#ffffff"
       id="rect11"
       width="264.42178"
       height="220.48708"
       x="96.819046"
       y="464.97552"
       inkscape:label="Room 9" /><path
       style="fill:#ffffff"
       d="m 361.24082,461.72109 -263.201364,0.4068 V 123.66803 l 87.462584,-1.22041 1.22041,33.35782 175.73877,1.62721 z"
       id="path11"
       inkscape:label="Room 10" /><rect
       style="fill:#ffffff"
       id="rect12"
       width="174.3177"
       height="81.981094"
       x="363.88101"
       y="157.34618"
       inkscape:label="Room 11" /></g><g
     inkscape:groupmode="layer"
     id="layer4"
     inkscape:label="plano 2"
     style="display:inline"><g
       transform="matrix(0.10051183,0,0,-0.10014488,-1.9888731,1197.6773)"
       fill="#000000"
       stroke="none"
       id="g60"><path
         d="m 2686,11622 c -1809,-2 -2281,-5 -2288,-15 -13,-20 -9,-32 4,-15 12,14 398,16 4080,22 l 4068,6 3,-198 3,-197 -1,200 v 200 H 6760 c -987,0 -2821,-1 -4074,-3 z"
         id="path1"
         clip-path="url(#clipPath264)" /><path
         d="m 8564,10755 c 0,-187 2,-262 3,-167 2,95 2,248 0,340 -1,92 -3,14 -3,-173 z"
         id="path4"
         clip-path="url(#clipPath257)" /><path
         d="m 4302,10638 3,-243 2,235 c 3,172 7,236 16,242 8,5 7,8 -5,8 -17,0 -18,-17 -16,-242 z"
         id="path5" /><path
         d="m 4388,10863 c 7,-3 16,-2 19,1 4,3 -2,6 -13,5 -11,0 -14,-3 -6,-6 z"
         id="path6-0" /><path
         d="m 4496,10814 c 32,-19 75,-50 94,-67 33,-30 33,-30 10,-3 -26,30 -136,106 -153,106 -6,0 16,-16 49,-36 z"
         id="path7" /><path
         d="m 8682,10785 c 0,-16 2,-22 5,-12 2,9 2,23 0,30 -3,6 -5,-1 -5,-18 z"
         id="path8"
         clip-path="url(#clipPath332)" /><path
         d="m 925,10779 c -8,-11 -3,-4835 5,-5402 l 5,-359 675,-1 675,-2 5,-1305 c 3,-718 6,-1307 8,-1309 1,-2 292,-1 647,3 l 645,7 V 1646 880 h 1510 1510 l 2,763 3,762 737,3 736,2 7,118 c 5,64 5,619 1,1232 -3,613 -7,2062 -8,3220 -1,1158 -4,2357 -7,2665 l -6,560 h -855 -855 l -3,-297 -2,-298 h -465 -465 v 415 415 h -340 -341 l -9,-22 c -8,-20 -9,-18 -11,17 -1,22 -5,54 -9,70 -5,18 -6,2 -3,-40 3,-38 9,-72 13,-75 4,-3 11,-15 14,-28 l 8,-23 286,2 287,1 v -366 -367 l -295,-2 -295,-2 v -48 -48 l 295,-2 295,-2 3,-178 2,-178 26,-9 c 14,-6 30,-8 35,-4 5,3 9,2 9,-3 0,-4 97,-7 216,-5 l 217,3 -6,-63 c -3,-37 -2,-54 3,-42 5,12 10,41 11,65 l 4,44 -208,3 -207,2 2,183 3,182 712,3 c 667,2 712,3 716,20 3,9 5,-71 6,-178 0,-140 -2,-191 -10,-180 -9,13 -10,13 -6,0 6,-22 85,-15 151,14 62,27 141,97 169,148 l 19,33 -28,-35 c -76,-96 -161,-151 -249,-161 l -30,-4 -3,193 c -2,159 -5,194 -17,198 -8,4 -15,17 -15,30 v 24 h -195 -195 v 250 250 h 760 760 l 1,-192 c 1,-106 2,-218 3,-248 l 1,-55 -361,-3 -362,-2 -15,-23 c -8,-12 -17,-47 -20,-77 -5,-42 -4,-48 3,-25 l 9,30 374,-3 374,-2 2,-1275 2,-1275 h -426 c -320,0 -429,-3 -439,-12 -10,-9 -10,-22 -3,-50 l 9,-38 h 429 429 V 5710 4560 h -385 c -374,0 -385,-1 -385,-19 0,-11 -4,-23 -10,-26 -6,-3 -9,-30 -8,-58 1,-47 2,-48 5,-12 5,44 23,74 23,37 v -22 h 380 380 l 1,-492 c 1,-271 2,-711 3,-978 v -485 l -353,-3 c -256,-2 -357,1 -367,9 -11,9 -14,65 -14,295 v 284 h -110 c -102,0 -110,-1 -110,-19 0,-11 -4,-23 -10,-26 -5,-3 -9,-30 -8,-58 1,-47 2,-48 5,-12 5,44 23,74 23,37 0,-20 5,-22 60,-22 h 60 l -2,-242 -3,-243 -417,-2 -418,-3 v 240 239 l 141,3 c 87,2 144,-1 149,-7 5,-6 9,-89 8,-185 0,-164 7,-203 28,-169 4,8 3,9 -5,5 -9,-6 -11,43 -11,204 1,140 -2,216 -9,223 -6,6 -11,17 -11,24 0,10 -33,13 -145,13 h -144 l -3,126 c -3,115 -5,128 -23,138 -11,6 -24,17 -28,24 -4,6 -17,12 -28,12 -11,0 -18,-4 -15,-8 3,-5 -1,-9 -9,-9 -8,0 -12,4 -9,9 3,4 -2,8 -11,8 -9,0 -13,-5 -10,-10 4,-6 -28,-10 -89,-10 -57,0 -96,4 -96,10 0,6 -28,10 -64,10 -53,0 -65,3 -69,18 -3,9 -5,2 -6,-15 l -1,-33 h 179 178 l -1,-427 -1,-428 h -592 c -388,0 -593,-3 -594,-10 -1,-5 -1,-16 0,-24 2,-7 -2,-10 -8,-6 -17,10 -15,441 2,449 6,3 -19,4 -56,2 -50,-3 -84,-12 -131,-35 -62,-30 -162,-109 -152,-119 3,-3 27,15 53,39 62,58 150,100 211,102 l 47,2 3,-228 c 2,-190 5,-229 17,-233 8,-4 15,-12 15,-20 0,-12 72,-14 448,-14 246,0 593,-2 772,-3 l 325,-2 3,-752 2,-753 H 5105 3620 l -2,705 c -1,388 -2,726 -3,753 v 47 l 475,1 c 439,0 475,1 478,17 2,9 7,17 11,17 5,0 11,26 14,59 8,75 31,143 69,206 22,36 25,45 10,32 -26,-23 -67,-117 -82,-187 l -12,-55 -47,3 c -25,2 -516,4 -1091,5 l -1045,2 -3,1251 -2,1251 167,6 c 91,4 471,7 844,7 h 679 l 2,-197 3,-198 24,-3 c 19,-3 22,0 17,13 -3,9 -6,110 -6,224 v 208 l -25,11 c -14,6 -24,17 -23,24 2,10 -40,14 -189,16 l -193,2 v 659 c 0,730 6,671 -66,671 h -34 l -2,-665 -3,-664 -1280,-3 -1280,-3 v 1075 1075 h 125 c 69,0 461,1 873,3 729,2 747,2 747,21 0,11 5,21 12,23 7,3 5,13 -7,31 l -17,27 h -867 -866 v 1482 1483 l 93,3 92,3 v 44 c 0,35 4,45 18,47 9,1 -32,4 -93,7 l -110,6 -3,80 c -2,44 0,99 3,123 l 6,42 h 384 385 l 5,-22 c 3,-13 5,-68 3,-123 l -3,-100 -62,-3 -63,-3 v -49 -50 h 950 950 v -35 -35 h -220 -220 v -22 c 1,-21 2,-21 13,-6 12,15 41,17 267,17 139,0 255,3 257,5 3,3 5,21 5,40 v 36 h 294 c 276,0 294,1 294,18 0,10 4,22 10,28 5,5 7,19 4,32 l -6,22 H 3094 1910 l -2,173 -3,172 -487,3 c -338,1 -489,-1 -493,-9 z m 963,-186 2,-173 h 190 190 v -30 -30 h -285 -285 v 30 30 h 65 66 l -3,143 -3,142 h -410 -410 l -3,-142 -3,-143 h 96 95 v -30 -30 h -95 -95 V 8855 7350 l 63,-1 c 34,-1 427,-2 872,-3 l 810,-1 3,-27 3,-28 h -876 -875 v -342 l 1,-343 h -28 -28 l -3,2077 -2,2077 142,4 c 79,1 292,3 473,2 h 330 z m 1242,-178 c 0,-7 -144,-10 -412,-10 h -413 l -6,-25 c -6,-21 -7,-19 -8,13 l -1,37 420,-2 c 272,-2 420,-7 420,-13 z m 40,-25 c 0,-16 -4,-30 -10,-30 -5,0 -10,14 -10,30 0,17 5,30 10,30 6,0 10,-13 10,-30 z m 1080,0 v -30 h -290 c -225,0 -290,-3 -291,-12 -1,-7 -2,-22 -3,-33 -1,-15 -9,-21 -33,-23 -32,-3 -33,-2 -33,32 v 36 l -207,2 -208,3 -3,28 -3,27 h 535 536 z m 1160,-385 v -415 l 58,-1 c 129,-2 127,-2 130,-31 l 3,-27 -93,-3 -93,-3 -3,-182 -2,-183 h -30 -30 v 185 185 h -301 -300 l 3,26 3,26 207,-2 c 115,0 248,2 298,6 l 90,7 v 383 384 l -292,2 -293,3 -3,28 -3,27 h 325 326 z m -2619,375 c 226,0 349,-4 349,-10 0,-13 -816,-14 -824,-1 -11,17 11,23 68,17 32,-3 216,-6 407,-6 z m 5271,-702 c 2,-282 5,-1198 6,-2035 l 2,-1523 h -30 -30 v 380 380 h -430 -430 v 30 30 h 430 430 v 1063 c 0,584 -3,1167 -7,1294 l -6,233 -361,2 -361,3 -3,28 -3,27 h 365 366 v 270 270 h -780 -780 v -270 -270 h 195 195 v -30 -30 h -285 -285 v 30 30 h 60 60 v 293 c 0,162 3,297 7,300 3,4 381,7 839,7 h 833 z M 6208,9578 c -4,-10 -70,-13 -293,-15 -159,-1 -292,0 -297,3 -29,18 35,23 298,24 236,0 295,-2 292,-12 z m 32,-18 c 0,-16 -4,-30 -10,-30 -11,0 -14,43 -3,53 11,12 13,8 13,-23 z m -610,-20 c 0,-5 -5,-10 -11,-10 -5,0 -7,5 -4,10 3,6 8,10 11,10 2,0 4,-4 4,-10 z m 578,-2 c -4,-10 -69,-14 -274,-16 -148,-1 -275,0 -282,3 -7,3 -10,9 -7,15 10,16 568,14 563,-2 z M 1001,6577 c -1,-12 -15,-9 -19,4 -3,6 1,10 8,8 6,-3 11,-8 11,-12 z m -31,-393 c 0,-288 -3,-365 -12,-362 -10,4 -14,86 -16,359 -1,195 0,360 3,367 3,7 9,10 15,7 6,-4 10,-137 10,-371 z m 40,1 c 0,-318 -2,-365 -15,-365 -13,0 -15,47 -15,365 0,318 2,365 15,365 13,0 15,-47 15,-365 z m 2658,-422 2,-663 193,-2 192,-3 v -25 -25 l -840,-5 -840,-5 v -415 c 0,-228 -3,-420 -7,-426 -4,-6 -19,-9 -33,-6 l -25,4 v 424 424 H 1626 942 l -2,370 -1,370 h 31 30 l 2,-242 c 1,-134 1,-265 -1,-292 -2,-28 0,-73 4,-101 l 6,-51 417,2 c 229,1 814,2 1300,3 l 882,1 v 666 665 l 28,-3 27,-3 z m 4402,337 c 0,-5 -11,-10 -25,-10 -14,0 -25,5 -25,10 0,6 11,10 25,10 14,0 25,-4 25,-10 z m -40,-390 c 0,-240 -4,-370 -10,-370 -6,0 -10,130 -10,370 0,240 4,370 10,370 6,0 10,-130 10,-370 z m 48,5 c 3,-331 -1,-395 -22,-374 -4,4 -9,674 -6,732 0,5 6,7 13,5 9,-4 13,-87 15,-363 z m -7078,85 c 0,-5 -11,-10 -25,-10 -14,0 -25,5 -25,10 0,6 11,10 25,10 14,0 25,-4 25,-10 z m 7075,-480 c 4,-6 -8,-10 -29,-10 -20,0 -36,5 -36,10 0,6 13,10 29,10 17,0 33,-4 36,-10 z m -5,-407 c 0,-208 1,-850 2,-1428 l 3,-1050 -1052,-3 -1053,-2 v 25 24 l 138,3 137,3 2,405 c 1,223 2,413 2,423 1,12 9,17 31,17 h 29 l 3,-131 3,-131 140,-1 140,-2 v -30 -30 l -142,-3 -143,-3 -1,-159 c 0,-88 -1,-204 -1,-257 l -1,-98 h 439 439 l 3,260 2,260 -56,2 c -59,1 -75,12 -66,45 4,18 13,19 94,17 l 90,-3 -4,-288 c -3,-260 -1,-289 13,-293 9,-3 179,-5 378,-4 288,2 363,5 372,16 8,9 10,181 5,620 -3,335 -6,778 -6,986 v 377 h -380 -380 v 30 30 h 376 c 207,-1 378,1 381,3 2,3 4,172 3,376 v 371 h 30 30 z m -3960,-69 c 0,-130 -4,-214 -10,-214 -9,0 -20,427 -11,436 16,16 21,-35 21,-222 z M 2374,4148 c 11,-42 7,-766 -5,-773 -6,-4 -13,-5 -15,-2 -3,2 -5,127 -6,276 0,149 -5,274 -9,277 -5,3 -9,-120 -9,-275 0,-181 -4,-281 -10,-281 -6,0 -10,137 -10,390 0,253 4,390 10,390 6,0 10,-40 10,-100 0,-69 4,-100 12,-100 8,0 9,26 5,95 -5,69 -3,96 6,102 8,5 1,10 -18,14 l -30,7 31,1 c 25,1 33,-4 38,-21 z m -6,-805 c -10,-2 -26,-2 -35,0 -10,3 -2,5 17,5 19,0 27,-2 18,-5 z m 10,-445 2,-418 h 311 c 280,0 311,-2 305,-16 -3,-9 -6,-20 -6,-25 0,-5 -138,-9 -334,-9 h -333 l -7,53 c -3,28 -6,229 -6,445 v 393 l 33,-3 32,-3 z m 1342,-423 c 0,-6 -122,-11 -340,-13 -299,-2 -340,0 -340,13 0,13 41,15 340,13 218,-2 340,-7 340,-13 z m 1837,-32 c -3,-10 -5,-2 -5,17 0,19 2,27 5,18 2,-10 2,-26 0,-35 z m 363,32 c 0,-13 -26,-15 -170,-15 -144,0 -170,2 -170,15 0,13 26,15 170,15 144,0 170,-2 170,-15 z m -2893,-17 c -3,-8 -6,-5 -6,6 -1,11 2,17 5,13 3,-3 4,-12 1,-19 z m 733,-9 c 0,-10 -4,-19 -10,-19 -5,0 -10,12 -10,26 0,14 4,23 10,19 6,-3 10,-15 10,-26 z m 780,6 v -25 h -380 c -224,0 -380,4 -380,9 0,5 -3,16 -6,25 -6,14 32,16 380,16 h 386 z m 980,0 v -25 h -225 -225 v 25 25 h 225 225 z m 423,5 c 3,-11 1,-23 -4,-26 -5,-3 -9,6 -9,20 0,31 6,34 13,6 z m -2219,-19 c 3,-5 -18,-12 -47,-15 -57,-7 -617,-6 -630,1 -4,2 -5,9 -2,14 8,12 672,12 679,0 z m 2194,-3 c -4,-10 -47,-14 -163,-16 -163,-3 -191,0 -180,18 10,16 348,13 343,-2 z"
         id="path9" /><path
         d="m 4651,10662 c 17,-29 34,-52 36,-52 8,0 -37,77 -52,90 -9,7 -2,-10 16,-38 z"
         id="path10" /><path
         d="m 8681,10664 c 0,-11 3,-14 6,-6 3,7 2,16 -1,19 -3,4 -6,-2 -5,-13 z"
         id="path12"
         clip-path="url(#clipPath329)" /><path
         d="m 1428,10493 c 7,-3 16,-2 19,1 4,3 -2,6 -13,5 -11,0 -14,-3 -6,-6 z"
         id="path13" /><path
         d="m 1258,10443 c 7,-3 16,-2 19,1 4,3 -2,6 -13,5 -11,0 -14,-3 -6,-6 z"
         id="path14" /><path
         d="m 3141,10194 c 0,-11 3,-14 6,-6 3,7 2,16 -1,19 -3,4 -6,-2 -5,-13 z"
         id="path15" /><path
         d="m 3166,10110 c 9,-35 32,-77 46,-86 6,-4 3,8 -8,27 -11,19 -26,45 -32,59 l -12,25 z"
         id="path17" /><path
         d="m 3237,9985 c 12,-16 34,-41 49,-55 19,-17 15,-10 -10,20 -53,61 -63,71 -39,35 z"
         id="path18" /><path
         d="m 8573,9885 c 0,-22 2,-30 4,-17 2,12 2,30 0,40 -3,9 -5,-1 -4,-23 z"
         id="path19"
         clip-path="url(#clipPath343)" /><path
         d="m 3325,9900 c 8,-13 95,-63 100,-58 3,2 -20,18 -51,36 -30,17 -52,27 -49,22 z"
         id="path20" /><path
         d="m 3518,9813 c 12,-2 30,-2 40,0 9,3 -1,5 -23,4 -22,0 -30,-2 -17,-4 z"
         id="path21" /><path
         d="m 3600,9802 25,-8 -24,-6 -23,-7 4,-1205 4,-1206 h -187 c -187,0 -188,0 -192,-22 -2,-13 -5,76 -6,196 l -1,219 -62,-7 c -179,-18 -341,-186 -353,-366 l -4,-55 9,55 c 31,189 160,325 338,355 l 42,7 2,-184 2,-183 6,185 6,185 2,-212 c 1,-161 -1,-213 -10,-216 -10,-4 -10,-6 0,-6 7,-1 17,-12 22,-26 l 9,-25 188,-2 188,-3 5,-193 5,-192 h -204 -204 l 6,-52 c 10,-97 44,-166 116,-239 36,-36 90,-78 118,-93 78,-39 77,-31 -2,15 -83,48 -115,77 -161,145 -27,43 -64,142 -64,176 0,4 98,9 218,11 l 217,2 -217,3 c -137,1 -218,6 -218,12 0,6 80,10 219,10 126,0 231,4 247,10 l 27,10 -7,1305 -7,1304 25,7 c 14,3 38,3 53,-1 15,-3 141,-3 281,1 l 253,7 -3,46 -3,46 -300,1 -300,2 -1,87 c -1,48 -6,90 -10,95 -5,4 -29,10 -54,14 -28,3 -35,2 -20,-2 z m 57,-36 c 3,-3 6,-45 7,-93 l 1,-88 303,-3 302,-2 v -25 -25 l -302,-2 -303,-3 V 8217 c 0,-1393 2,-1332 -46,-1320 -14,4 -17,11 -12,34 3,16 2,103 -2,194 l -7,165 h -184 -184 v 30 30 l 185,2 185,3 v 1206 c 0,663 2,1208 6,1211 6,7 43,2 51,-6 z"
         id="path22" /><path
         d="m 8573,9760 c 0,-25 2,-35 4,-22 2,12 2,32 0,45 -2,12 -4,2 -4,-23 z"
         id="path23"
         clip-path="url(#clipPath351)" /><path
         d="m 8574,9440 c 0,-151 2,-213 3,-137 2,75 2,199 0,275 -1,75 -3,13 -3,-138 z"
         id="path25"
         clip-path="url(#clipPath359)" /><path
         d="m 6854,9350 c 0,-69 1,-97 3,-62 2,34 2,90 0,125 -2,34 -3,6 -3,-63 z"
         id="path26" /><path
         d="m 7202,9413 c -6,-20 -10,-39 -8,-41 2,-2 9,13 16,33 7,20 10,38 8,41 -3,2 -10,-13 -16,-33 z"
         id="path27" /><path
         d="m 5790,8941 c -20,-49 -125,-148 -193,-181 -34,-17 -51,-28 -37,-24 53,14 124,60 171,112 49,53 85,110 76,118 -2,3 -10,-9 -17,-25 z"
         id="path30" /><path
         d="m 5458,8723 c -21,-2 -38,-9 -38,-15 0,-7 -5,-6 -14,1 -10,8 -16,9 -21,1 -3,-5 -17,-10 -31,-10 h -25 l 6,-1790 6,-1790 h -194 -194 l -11,-25 c -8,-17 -12,-99 -12,-240 0,-188 -2,-215 -16,-215 -8,0 -12,-4 -9,-10 3,-5 13,-10 21,-10 12,0 14,35 15,213 0,116 3,206 6,200 4,-10 141,-13 639,-13 h 634 v -277 c 2,-860 4,-953 22,-953 24,0 32,-18 11,-23 -14,-4 -12,-5 5,-6 12,0 34,6 48,16 l 25,16 -3,331 -3,331 h 233 c 196,0 234,-2 243,-15 5,-9 9,-87 8,-183 -1,-92 1,-170 4,-173 3,-3 14,-1 24,6 17,11 17,11 0,6 -17,-5 -18,6 -16,205 1,143 -2,214 -10,222 -6,6 -11,17 -11,24 0,10 -52,13 -237,15 l -238,3 -3,563 -2,562 h -121 -120 l 3,-52 3,-53 68,3 67,4 v -236 -236 h -390 -390 v 228 229 l 156,7 c 85,3 160,4 165,1 5,-4 9,18 9,49 v 56 h -165 -165 v 579 578 l 83,6 c 45,4 326,7 625,7 525,0 542,1 542,19 0,10 7,21 15,25 19,7 20,26 1,26 -8,0 -16,7 -20,15 -5,13 -84,15 -626,15 h -620 v 168 c 0,92 -3,485 -6,875 l -6,707 28,1 c 16,1 40,5 54,9 28,9 14,10 -52,3 z m -40,-863 c 1,-448 3,-839 5,-868 l 2,-53 620,-2 620,-2 v -28 -29 l -620,-1 -620,-2 v -603 -603 l 160,-2 160,-2 v -30 -30 l -162,-3 -163,-2 v -250 -250 h 410 410 v 249 249 l -65,4 c -72,4 -74,5 -77,39 l -3,24 h 100 100 l 3,-562 2,-563 238,-2 237,-3 3,-27 3,-28 -238,-2 -238,-3 -3,-338 -2,-338 -28,3 -27,3 -5,615 -5,615 -632,3 -633,2 v 30 30 h 196 196 l -7,1779 c -4,979 -4,1784 0,1791 4,6 19,10 33,8 l 27,-3 z"
         id="path31" /><path
         d="m 8585,7960 c 0,-267 1,-376 2,-242 2,133 2,351 0,485 -1,133 -2,24 -2,-243 z"
         id="path32"
         clip-path="url(#clipPath283)" /><path
         d="m 8583,7365 c 0,-22 2,-30 4,-17 2,12 2,30 0,40 -3,9 -5,-1 -4,-23 z"
         id="path38"
         clip-path="url(#clipPath295)" /><path
         d="m 6690,7350 c 0,-6 19,-10 43,-10 23,0 53,-3 67,-6 18,-4 21,-3 10,4 -22,14 -120,23 -120,12 z"
         id="path39" /><path
         d="m 6927,7272 c 93,-74 136,-138 170,-252 l 13,-45 -6,40 c -13,91 -81,199 -165,261 -63,46 -72,43 -12,-4 z"
         id="path40" /><path
         d="m 3508,6463 c 6,-2 18,-2 25,0 6,3 1,5 -13,5 -14,0 -19,-2 -12,-5 z"
         id="path41" /><path
         d="m 4500,5008 c 0,-18 -3,-44 -5,-58 l -6,-25 12,25 12,25 9,-34 c 5,-18 11,-31 13,-29 3,2 0,20 -5,39 -6,18 -10,46 -10,61 0,16 -4,28 -10,28 -5,0 -10,-15 -10,-32 z"
         id="path42" /><path
         d="m 4540,4892 c 0,-24 32,-75 79,-125 45,-49 125,-107 145,-107 6,1 -7,10 -29,22 -54,28 -146,123 -173,178 -12,25 -22,39 -22,32 z"
         id="path43" /><path
         d="m 4446,4839 c -40,-65 -99,-121 -166,-158 -67,-37 -59,-41 12,-5 60,30 140,109 169,166 29,57 19,55 -15,-3 z"
         id="path44" /><path
         d="m 282,4785 c 0,-16 2,-22 5,-12 2,9 2,23 0,30 -3,6 -5,-1 -5,-18 z"
         id="path45"
         clip-path="url(#clipPath387)" /><path
         d="m 283,4705 c 0,-27 2,-38 4,-22 2,15 2,37 0,50 -2,12 -4,0 -4,-28 z"
         id="path46"
         clip-path="url(#clipPath384)" /><path
         d="m 4791,4650 c 9,-5 36,-12 60,-15 42,-5 41,-4 -11,10 -65,17 -70,17 -49,5 z"
         id="path47" /><path
         d="m 4165,4640 c -27,-7 -28,-8 -5,-8 14,0 34,3 45,8 25,11 2,11 -40,0 z"
         id="path48" /><path
         id="path37"
         d="m 401.35013,6511.3823 c 1.4e-4,-3.7096 -2e-4,-7.4299 0,-11.1557 0.12962,1.1854 0.25871,2.3641 0.38863,3.5495 -0.12222,2.5329 -0.24957,5.0746 -0.38863,7.6062 z M 8599.9925,5210.006 c -4,774 -5.0015,-2.0074 -2.0015,-1742.0074 l 5.0134,-3136.58856 c 4.8672,0.46256 7.4475,0.96568 7.9282,1.46273 l 0.019,0.0195 v 0.0195 l 0.019,0.0195 0.02,0.0195 v 0.0195 c 0,0.009 -9e-4,0.0304 0,0.039 3,38 -4.9984,3690.99671 -10.9984,4876.99671 z m 3.0119,-4878.59596 c -5.1279,-0.48734 -12.8188,-0.95401 -23.2793,-1.40421 h 23.2793 z m -23.2793,-1.40421 H 4511.9903 420.00465 v 488.00391 c 0,757.79076 -4.08088,2760.89406 -8.37511,4375.78926 -0.69625,1.3837 -1.38868,2.776 -2.05977,4.1736 -0.1815,-14.8143 -0.31431,-29.6309 -0.4275,-44.4473 -0.13759,-19.3319 -0.1894,-38.6696 -0.23318,-58.0019 -0.0276,-12.1842 -2.71523,-21.7323 -6.89828,-28.6304 1.99144,-1321.7566 3.99358,-2924.6718 5.98499,-3568.8919 L 409.99727,320.00079 H 4510.0083 c 2919.5281,0 3892.8287,2.39205 4069.7168,10.00504 z"
         clip-path="url(#clipPath101)" /><path
         d="m 283,4385 c 0,-33 2,-45 4,-27 2,18 2,45 0,60 -2,15 -4,0 -4,-33 z"
         id="path49"
         clip-path="url(#clipPath366)" /><path
         d="m 7191,4384 c 0,-11 3,-14 6,-6 3,7 2,16 -1,19 -3,4 -6,-2 -5,-13 z"
         id="path50" /><path
         d="m 7162,4315 c -34,-71 -106,-140 -185,-180 -38,-19 -63,-35 -55,-35 29,0 113,52 161,98 53,52 111,136 105,152 -2,6 -14,-10 -26,-35 z"
         id="path51" /><path
         d="m 282,4270 c 0,-14 2,-19 5,-12 2,6 2,18 0,25 -3,6 -5,1 -5,-13 z"
         id="path52"
         clip-path="url(#clipPath369)" /><path
         d="m 282,4200 c 0,-19 2,-27 5,-17 2,9 2,25 0,35 -3,9 -5,1 -5,-18 z"
         id="path53"
         clip-path="url(#clipPath374)" /><path
         d="m 283,4065 c 0,-33 2,-45 4,-27 2,18 2,45 0,60 -2,15 -4,0 -4,-33 z"
         id="path54" /><path
         d="m 281,3934 c 0,-11 3,-14 6,-6 3,7 2,16 -1,19 -3,4 -6,-2 -5,-13 z"
         id="path55" /><path
         d="m 282,3880 c 0,-14 2,-19 5,-12 2,6 2,18 0,25 -3,6 -5,1 -5,-13 z"
         id="path56" /><path
         d="m 6130,3744 c -65,-23 -151,-92 -186,-149 -10,-17 5,-5 35,28 62,67 115,100 191,121 30,8 44,15 30,15 -14,0 -45,-7 -70,-15 z"
         id="path57" /><path
         d="m 5915,3549 c -4,-6 -5,-12 -2,-15 2,-3 7,2 10,11 7,17 1,20 -8,4 z"
         id="path58" /><path
         d="m 5890,3485 c -7,-20 -10,-39 -7,-42 3,-3 10,12 16,33 14,49 7,56 -9,9 z"
         id="path59" /><path
         d="m 7010,2918 c 0,-33 -63,-138 -110,-182 -28,-26 -78,-60 -113,-76 -34,-17 -55,-30 -46,-30 25,0 110,48 148,83 59,56 110,127 121,169 6,22 9,43 6,46 -3,3 -6,-1 -6,-10 z"
         id="path60" /></g><path
       style="fill:#f9f9f9;stroke-width:0.143826"
       d="m 391.71142,954.06095 c -5.87479,-0.11164 -12.07262,-0.36748 -13.06701,-0.5394 l -0.55412,-0.0958 -0.3448,-1.36469 c -0.18964,-0.75058 -0.3448,-1.41728 -0.3448,-1.48156 0,-0.23145 0.96064,-0.50958 2.30122,-0.66626 3.12126,-0.3648 10.17073,-0.45663 41.5299,-0.54097 l 32.97222,-0.0887 v 2.46661 2.4666 l -28.36977,-0.0232 c -15.60338,-0.0128 -30.95865,-0.0725 -34.12284,-0.13259 z"
       id="path135" /><path
       style="fill:#f9f9f9;stroke-width:0.143826"
       d="m 421.10737,954.15228 c -0.0355,-0.0355 -7.24658,-0.0795 -16.02467,-0.0979 -14.55639,-0.0304 -21.5575,-0.16393 -25.6418,-0.48895 -1.35675,-0.10797 -1.29485,-0.0473 -1.68433,-1.64988 -0.12497,-0.51418 -0.25781,-1.0396 -0.29522,-1.1676 -0.0696,-0.23826 0.2711,-0.42533 1.16186,-0.63791 0.62517,-0.1492 0.72048,-0.15737 3.95523,-0.33898 2.89657,-0.16263 39.55913,-0.42457 61.30604,-0.43801 l 10.31955,-0.006 v 2.44505 2.44505 h -16.51607 c -9.08385,0 -16.54511,-0.029 -16.58059,-0.0645 z"
       id="path136" /><path
       style="fill:#f9f9f9;stroke-width:0.0719132"
       d="m 374.61702,954.09094 c -0.6719,-0.73481 -0.87872,-3.02467 -0.35862,-3.97046 0.42532,-0.77343 1.23661,-0.0565 1.53777,1.35901 0.21817,1.0254 -0.001,2.26742 -0.4647,2.63207 -0.23873,0.18779 -0.53162,0.17934 -0.71445,-0.0206 z"
       id="path137" /><path
       style="fill:#f9f9f9;stroke-width:0.0719132"
       d="m 326.32431,955.13371 -3.00238,-0.0196 v -1.32142 -1.32143 l 1.97676,-0.0529 c 2.72479,-0.073 29.6758,0.008 33.65625,0.10103 8.8809,0.20773 12.99951,0.42935 13.285,0.71484 0.31609,0.31608 -1.16697,0.91438 -3.04163,1.22707 -1.22095,0.20365 -1.94329,0.27584 -3.62735,0.36252 -5.27398,0.27148 -23.30527,0.41386 -39.24665,0.30991 z"
       id="path138" /><path
       style="fill:#f9f9f9;stroke-width:0.0719132"
       d="m 323.32193,949.8182 v -1.34229 l 8.79139,0.0482 c 19.35425,0.10612 33.40874,0.45761 37.95222,0.94915 1.62941,0.17629 2.08215,0.31183 1.53032,0.45815 -1.65005,0.43754 -9.42778,0.78267 -22.8526,1.01407 -4.35061,0.075 -19.21609,0.21175 -23.24595,0.21386 l -2.17538,10e-4 z"
       id="path139" /><path
       style="fill:#f9f9f9;stroke-width:0.0719132"
       d="m 314.00917,951.1115 c -2.33337,-0.0249 -5.9888,-0.16384 -7.26324,-0.27609 -2.01214,-0.17723 -2.9962,-0.45311 -3.10065,-0.86929 -0.16042,-0.63915 0.77422,-0.97829 3.24448,-1.17729 2.0854,-0.168 4.24393,-0.22434 10.1937,-0.26608 l 6.23847,-0.0438 v 1.34075 1.34075 l -3.90129,-0.0164 c -2.14571,-0.009 -4.58088,-0.0237 -5.41147,-0.0325 z"
       id="path140" /><path
       style="fill:#f9f9f9;stroke-width:0.0719132"
       d="m 318.21609,955.06676 c -2.93982,-0.0305 -9.24741,-0.16971 -11.00273,-0.24292 -2.12677,-0.0887 -2.8529,-0.16785 -3.03268,-0.33055 -0.35028,-0.317 -0.29843,-1.11361 0.0842,-1.29435 0.64796,-0.30605 6.36958,-0.56251 15.98272,-0.7164 l 3.07429,-0.0492 v 1.34119 1.34119 l -1.77985,-0.0165 c -0.97892,-0.009 -2.47562,-0.0237 -3.32599,-0.0325 z"
       id="path141" /><path
       style="fill:#f9f9f9;stroke-width:0.0719132"
       d="m 301.8196,951.80719 c -0.0517,-0.0965 -0.10537,-0.51953 -0.12272,-0.96652 -0.026,-0.66888 -0.0101,-0.83473 0.10001,-1.04654 0.072,-0.13843 0.16321,-0.24905 0.20276,-0.24582 0.15069,0.0123 0.39553,0.63327 0.39553,1.00309 0,0.43818 -0.16544,1.03441 -0.35039,1.26282 l -0.13332,0.16464 z"
       id="path142" /><path
       style="fill:#f9f9f9;stroke-width:0.0719132"
       d="m 232.49551,933.40915 v -20.93799 h 2.25395 2.25395 l 0.0471,7.89247 c 0.0259,4.34087 0.0684,12.63889 0.0945,18.44006 l 0.0474,10.54758 25.96736,0.0335 c 25.1059,0.0324 28.34201,0.0594 31.72042,0.26456 2.84931,0.17301 4.13426,0.44146 4.24611,0.8871 0.0239,0.0951 -0.0686,0.52857 -0.21788,1.02095 -0.14266,0.47063 -0.29572,1.08948 -0.34014,1.37524 -0.067,0.43106 -0.10627,0.52571 -0.23043,0.55571 -0.86966,0.21012 -4.28528,0.4037 -9.67815,0.54852 -6.48545,0.17417 -12.54576,0.22171 -33.74529,0.26474 l -22.41895,0.0455 z"
       id="path143" /><path
       style="fill:#f9f9f9;stroke-width:0.0719132"
       d="m 231.52864,954.23477 c -0.079,-0.25845 -0.70035,-5.33878 -0.75858,-6.20252 -0.24426,-3.62291 -0.45954,-19.25065 -0.53324,-38.7073 l -0.0333,-8.79139 h 3.3753 3.3753 l 7e-5,1.92368 c 4e-5,1.05802 0.0215,3.74398 0.0477,5.9688 l 0.0477,4.04512 h -2.27704 -2.27704 v 20.92675 20.92675 h -0.4697 c -0.31315,0 -0.47885,-0.03 -0.49717,-0.0899 z"
       id="path144" /><path
       style="fill:#f9f9f9;stroke-width:0.0719132"
       d="m 230.19428,882.8429 v -17.69066 l 0.16181,6e-4 c 0.35433,10e-4 6.25932,0.57159 6.29577,0.60803 0.0215,0.0215 0.079,5.72638 0.12783,12.67757 0.0488,6.95119 0.10871,14.76626 0.13306,17.36682 l 0.0443,4.7283 h -3.38136 -3.38137 z"
       id="path145" /><path
       style="fill:#f9f9f9;stroke-width:0.0719132"
       d="m 232.88309,862.91656 c -0.50992,-0.0853 -0.78719,-0.19809 -0.70036,-0.28492 0.22055,-0.22055 3.23877,-0.26978 3.94215,-0.0643 l 0.28541,0.0834 -0.18486,0.0969 c -0.10167,0.0533 -0.39191,0.13045 -0.64498,0.17151 -0.53905,0.0875 -2.16843,0.0859 -2.69736,-0.003 z"
       id="path146" /><path
       style="fill:#f9f9f9;stroke-width:0.0719132"
       d="m 234.82471,859.97829 c -0.0835,-0.035 -0.17235,-0.11724 -0.19747,-0.1827 -0.24282,-0.63279 -0.43638,-9.64646 -0.54667,-25.45817 -0.0384,-5.49777 -0.0905,-10.91014 -0.11578,-12.02749 l -0.0461,-2.03155 h 1.6593 1.6593 l -0.0362,3.43386 c -0.19642,18.64932 -0.36386,26.56611 -0.68099,32.19915 -0.0886,1.5731 -0.26343,3.34933 -0.3529,3.58465 -0.11706,0.30789 -1.00115,0.62546 -1.34256,0.48225 z"
       id="path147" /><path
       style="fill:#f9f9f9;stroke-width:0.0719132"
       d="m 231.06245,859.75169 c -0.27321,-1.27394 -0.48847,-5.86116 -0.65772,-14.01602 -0.0794,-3.82659 -0.20852,-25.20211 -0.15322,-25.3674 0.0221,-0.0661 0.29048,-0.0899 1.01217,-0.0899 h 0.9821 l -0.0204,1.99559 c -0.0112,1.09758 -0.0523,7.15717 -0.0913,13.46576 -0.0678,10.96615 -0.11988,14.27894 -0.28599,18.19405 -0.15953,3.75983 -0.41216,6.18454 -0.64439,6.18454 -0.0344,0 -0.098,-0.16498 -0.1412,-0.36663 z"
       id="path148" /><path
       style="fill:#f9f9f9;stroke-width:0.0719132"
       d="m 230.26646,813.23088 c 0.001,-17.99386 0.40964,-31.06652 0.9705,-31.06652 0.25759,0 0.59466,1.68788 0.75396,3.77545 0.0392,0.51418 0.10362,2.87653 0.14308,5.24967 0.10206,6.13882 0.20133,8.00921 0.5051,9.51733 0.32633,1.62009 0.99223,1.94581 1.34601,0.65839 0.11399,-0.41483 0.12784,-0.79523 0.12302,-3.37992 -0.005,-2.73151 -0.0358,-3.4885 -0.32424,-7.98237 -0.10585,-1.64932 -0.1045,-4.70325 0.002,-5.56844 0.13768,-1.11371 0.3087,-1.57878 0.72861,-1.98139 0.52428,-0.50267 0.46644,-0.72159 -0.2811,-1.06382 -0.35509,-0.16257 -0.93587,-0.31609 -3.28449,-0.86821 l -0.86296,-0.20286 1.12885,-0.0563 c 0.62087,-0.0309 1.65642,-0.0413 2.30123,-0.0231 0.99883,0.0283 1.23525,0.0575 1.59715,0.19771 0.78969,0.30583 1.32993,1.07321 1.52014,2.1593 0.3571,2.03904 0.52428,9.3709 0.58499,25.65505 l 0.0448,12.02749 h -1.66493 -1.66492 l -2.8e-4,-0.37754 c -10e-4,-1.4752 -0.24051,-8.78604 -0.36325,-11.09262 -0.17985,-3.37984 -0.34855,-4.63933 -0.5728,-4.27648 -0.2734,0.44237 -0.5723,6.02539 -0.69172,12.92039 l -0.0488,2.81894 -0.99546,0.0216 -0.99547,0.0216 z"
       id="path149" /><path
       style="fill:#f9f9f9;stroke-width:0.0719132"
       d="m 231.72244,778.08775 -1.52816,-0.25723 v -23.82971 -23.82972 h 3.2467 3.24669 l -0.0443,13.96915 c -0.0594,18.7298 -0.25098,30.08619 -0.55421,32.84347 -0.0804,0.73144 -0.2295,0.92426 -0.89772,1.16121 -0.73887,0.262 -1.66336,0.24677 -3.46903,-0.0572 z"
       id="path150" /><path
       style="fill:#f9f9f9;stroke-width:0.0719132"
       d="m 230.19428,711.54556 v -18.62553 h -17.47491 -17.47492 v -2.83172 -2.83172 l 11.59601,-0.0456 c 12.46499,-0.049 88.78442,-0.18943 102.40445,-0.18847 l 8.25205,5.9e-4 v 2.9399 2.93991 l -3.54173,0.0451 c -1.94795,0.0248 -17.90999,0.12484 -35.4712,0.22226 -17.56122,0.0974 -34.1543,0.19819 -36.87352,0.22391 l -4.94403,0.0468 v 18.36503 18.36504 h -3.2361 -3.2361 z"
       id="path151" /><path
       style="fill:#f9f9f9;stroke-width:0.0719132"
       d="m 106.07203,690.23417 v -2.68587 l 9.43861,-0.0492 c 17.92473,-0.0934 41.21837,-0.18262 60.44308,-0.23153 l 19.29073,-0.0491 v 2.85076 2.85075 h -44.58621 -44.58621 z"
       id="path152" /><path
       style="fill:#f9f9f9;stroke-width:0.0719132"
       d="m 92.672044,683.30164 c -0.02634,-5.29012 -0.06939,-13.91432 -0.09567,-19.16488 l -0.04779,-9.54649 h 3.104146 3.104146 l -8.97e-4,6.49017 c -5.11e-4,3.69423 -0.03924,7.60545 -0.08989,9.07905 -0.121544,3.53575 -0.101636,7.68826 0.04516,9.42064 0.09425,1.11227 0.706226,6.50853 0.874732,7.71322 l 0.04282,0.30616 3.231609,-0.0482 3.23161,-0.0482 v 2.70845 2.70845 h -6.67605 -6.676051 z"
       id="path153" /><path
       style="fill:#f9f9f9;stroke-width:0.0719132"
       d="m 92.525791,651.76768 c -0.02387,-1.55243 -0.05554,-9.59413 -0.07037,-17.87044 l -0.02697,-15.04785 h 3.035113 3.035112 l 0.0511,7.13739 c 0.0281,3.92557 0.08079,10.47057 0.117075,14.54446 0.03629,4.07388 0.06689,8.90375 0.068,10.73305 l 0.002,3.32598 h -3.083845 -3.083844 z"
       id="path154" /><path
       style="fill:#f9f9f9;stroke-width:0.0719132"
       d="m 95.033348,617.72572 c -0.936821,-0.23506 -1.474222,-0.56726 -1.474222,-0.9113 0,-0.24655 0.409121,-0.59042 0.879924,-0.73958 0.50133,-0.15883 2.06913,-0.22037 2.665547,-0.10463 1.204247,0.23369 1.700803,0.80237 1.100453,1.26028 -0.474394,0.36183 -0.993018,0.49093 -2.057047,0.51205 -0.533956,0.0106 -1.035551,0.003 -1.114655,-0.0168 z"
       id="path155" /><path
       style="fill:#f9f9f9;stroke-width:0.0719132"
       d="m 94.216689,614.51111 c -0.582136,-0.70143 -0.931357,-4.56118 -1.159292,-12.81302 -0.195968,-7.09455 -0.360569,-21.81006 -0.360969,-32.27107 l -2.61e-4,-6.81378 h 1.355012 1.355012 l 0.04071,8.5397 c 0.04616,9.68293 -0.04653,29.19005 -0.158966,33.45763 -0.15862,6.02035 -0.373211,8.89601 -0.723121,9.69031 -0.141607,0.32145 -0.217685,0.36739 -0.348122,0.21023 z"
       id="path156" /><path
       style="fill:#f9f9f9;stroke-width:0.0719132"
       d="m 97.747778,614.64631 c -0.37662,-0.3169 -0.593991,-1.28931 -0.768904,-3.4397 -0.315511,-3.8789 -0.396916,-10.25779 -0.398269,-31.20834 l -0.0011,-17.38503 h 1.438265 1.438265 l 0.0041,7.56887 c 0.01621,30.16454 -0.04952,36.86613 -0.402915,41.08044 -0.182708,2.17884 -0.381208,3.05708 -0.763705,3.37893 -0.264689,0.22272 -0.286505,0.22292 -0.545681,0.005 z"
       id="path157" /><path
       style="fill:#f9f9f9;stroke-width:0.0719132"
       d="m 96.607246,558.10068 c 0.134674,-12.44094 0.414421,-15.99445 1.283203,-16.29999 1.083096,-0.3809 1.397924,2.92502 1.538575,16.15617 l 0.0495,4.65638 H 98.01846 96.558397 Z"
       id="path158" /><path
       style="fill:#f9f9f9;stroke-width:0.0719132"
       d="m 92.696654,558.7479 c 6.25e-4,-4.96752 0.123702,-13.69477 0.217113,-15.39528 0.04716,-0.85853 0.107383,-1.3852 0.172684,-1.51018 0.144837,-0.27721 0.486561,-0.58108 0.729785,-0.64896 0.294185,-0.0821 0.670547,0.0325 0.742694,0.22612 0.373365,1.00206 0.690149,8.60378 0.816515,19.59357 l 0.0184,1.60007 h -1.348838 -1.348838 z"
       id="path159" /><path
       style="fill:#f9f9f9;stroke-width:0.0719132"
       d="m 97.426916,539.5347 c -0.260225,-0.16503 -0.379003,-0.31 -0.553429,-0.67548 -0.259719,-0.54419 -0.274462,-0.71602 -0.07827,-0.91222 0.303447,-0.30345 0.967013,-0.0703 1.485854,0.52201 0.292116,0.3335 0.341632,0.50063 0.239765,0.80929 -0.165005,0.49997 -0.562827,0.59321 -1.093925,0.2564 z"
       id="path160" /><path
       style="fill:#f9f9f9;stroke-width:0.0719132"
       d="m 93.031656,530.88152 c -0.02625,-2.93675 -0.04775,-8.29249 -0.04778,-11.90164 l -5.4e-5,-6.56208 h 2.76866 2.76866 v 4.01523 c 0,2.20837 0.02152,7.56411 0.04783,11.90164 l 0.04783,7.88641 H 95.848091 93.07938 Z"
       id="path161" /><path
       style="fill:#f9f9f9;stroke-width:0.0719132"
       d="m 92.983801,500.8937 c -1e-5,-6.33825 -0.02156,-18.19854 -0.04788,-26.3562 l -0.04787,-14.83211 h 2.816544 2.816544 v 0.9595 0.9595 l 1.636031,0.0461 c 3.80221,0.10719 53.79341,0.33862 72.66833,0.3364 l 2.57089,-3e-4 v 2.80461 2.80462 H 136.95877 98.52114 v 22.40097 22.40098 h -2.76866 -2.76866 z"
       id="path162" /><path
       style="fill:#f9f9f9;stroke-width:0.0719132"
       d="m 92.911907,446.1857 v -13.51969 h 2.804617 2.804616 v 13.51969 13.51969 h -2.804616 -2.804617 z"
       id="path163" /><path
       style="fill:#f9f9f9;stroke-width:0.0719132"
       d="m 92.887669,430.56255 c -0.02608,-1.1569 -0.04747,-12.40234 -0.04754,-24.98985 l -1.33e-4,-22.88639 h 2.840573 2.840573 v 24.98985 24.98985 H 95.728111 92.93508 Z"
       id="path164" /><path
       style="fill:#f9f9f9;stroke-width:0.0719132"
       d="m 92.815567,380.84086 c -0.02612,-1.015 -0.04749,-10.27023 -0.04749,-20.56719 v -18.72173 h 2.876529 2.87653 v 20.56718 20.56719 H 95.692093 92.86305 Z"
       id="path165" /><path
       style="fill:#f9f9f9;stroke-width:0.0719132"
       d="m 92.74404,333.29989 c -0.02629,-4.53862 -0.04782,-12.80685 -0.04784,-18.37383 l -3.5e-5,-10.12179 h 2.912487 2.912486 v 18.37383 18.37384 H 95.65649 92.791842 Z"
       id="path166" /><path
       style="fill:#f9f9f9;stroke-width:0.0719132"
       d="m 92.696167,285.27983 v -19.52445 h 2.912487 2.912486 v 19.52445 19.52444 h -2.912486 -2.912487 z"
       id="path167" /><path
       style="fill:#f9f9f9;stroke-width:0.0719132"
       d="m 92.672106,259.44499 c -0.02627,-3.47071 -0.04778,-13.35698 -0.04781,-21.96949 l -4.5e-5,-15.65911 h 2.948443 2.948443 v 21.9695 21.96949 h -2.900636 -2.900636 z"
       id="path168" /><path
       style="fill:#f9f9f9;stroke-width:0.0719132"
       d="m 92.624254,205.71975 c 0,-8.85315 -0.02154,-20.56782 -0.04786,-26.03259 l -0.04785,-9.93595 h 2.996298 2.996299 v 26.03259 26.03259 h -2.948443 -2.948443 z"
       id="path169" /><path
       style="fill:#f9f9f9;stroke-width:0.0719132"
       d="m 92.552341,147.27832 v -22.47289 h 41.422029 41.42202 v 0.39546 0.39545 l -38.2039,0.0181 -38.203914,0.018 -0.260599,12.44099 c -0.143329,6.84255 -0.281124,13.27429 -0.306211,14.29276 l -0.04561,1.85176 h 9.600994 9.601 v 2.94845 2.94844 h -9.52851 -9.528498 v 4.81819 4.81819 h -2.9844 -2.984399 z"
       id="path170" /><path
       style="fill:#f9f9f9;stroke-width:0.0719132"
       d="m 92.552341,122.54589 v -2.25955 l 0.449458,-0.0387 c 1.081482,-0.0932 15.192681,-0.41586 21.160471,-0.48388 3.59926,-0.041 18.84936,-0.0923 33.88911,-0.11399 l 27.34501,-0.0394 v 2.59753 2.59754 H 133.97437 92.552341 Z"
       id="path171" /><path
       style="fill:#f9f9f9;stroke-width:0.0719132"
       d="m 168.9242,157.16639 v -2.94845 h 6.58006 c 6.21898,0 6.58004,-0.007 6.57956,-0.12584 -2.8e-4,-0.0692 -0.12945,-6.16117 -0.28705,-13.53767 -0.1576,-7.3765 -0.28682,-13.7597 -0.28715,-14.18489 l -6e-4,-0.77306 h -3.05631 -3.05632 v -2.98482 -2.98481 l 6.02274,0.0184 6.02273,0.0184 0.153,8.73746 c 0.0842,4.8056 0.19517,12.58032 0.2467,17.27716 l 0.0937,8.53969 h 18.79233 18.79233 v 2.94845 2.94844 H 197.22206 168.9242 Z"
       id="path172" /><path
       style="fill:#f9f9f9;stroke-width:0.0719132"
       d="m 228.50775,159.40124 c -0.0847,-0.13697 -0.1725,-1.69045 -0.22556,-3.98883 l -0.0513,-2.22142 9.70117,0.0488 c 38.57644,0.19421 43.03891,0.22825 52.81315,0.40295 13.15604,0.23514 21.34922,0.6093 21.7324,0.99247 0.30299,0.303 -3.09678,0.56633 -9.47119,0.73361 -7.04677,0.18493 -13.95398,0.22781 -42.72259,0.26525 l -30.64116,0.0399 -0.27125,1.15971 c -0.27673,1.18312 -0.65636,2.47789 -0.7583,2.58625 -0.0311,0.0331 -0.0786,0.0247 -0.10539,-0.0187 z"
       id="path173" /><path
       style="fill:#f9f9f9;stroke-width:0.0719132"
       d="m 256.01114,160.10903 c -14.23587,-0.11232 -24.02526,-0.41851 -24.97949,-0.7813 -0.23627,-0.0898 -0.40927,-0.3586 -0.45624,-0.70881 -0.0321,-0.23928 -0.005,-0.31612 0.193,-0.54128 0.59495,-0.67762 2.75013,-0.85386 6.3655,-0.52055 3.65173,0.33667 13.99608,0.51638 35.23749,0.6122 22.89711,0.10328 27.67484,0.15491 33.69135,0.36406 4.63217,0.16102 7.5844,0.41786 7.44248,0.64748 -0.42594,0.68919 -29.10462,1.15218 -57.49409,0.9282 z"
       id="path174" /><path
       style="fill:#f9f9f9;stroke-width:0.0719132"
       d="m 315.35868,159.9554 c -0.73258,-0.7798 -0.90974,-3.70793 -0.3068,-5.07096 0.49179,-1.11178 1.09155,-0.78334 1.40633,0.77012 0.17318,0.85471 0.11683,2.78706 -0.10091,3.45975 -0.29117,0.89959 -0.65544,1.20639 -0.99862,0.84109 z"
       id="path175" /><path
       style="fill:#f9f9f9;stroke-width:0.0719132"
       d="m 344.17677,159.99463 c -5.69293,-0.0536 -25.21044,-0.3244 -25.56927,-0.35478 l -0.4356,-0.0369 -0.27229,-2.5307 c -0.14976,-1.39189 -0.28895,-2.60352 -0.30931,-2.69251 l -0.037,-0.16181 h 16.79954 16.79954 v 2.91249 2.91249 l -2.67877,-0.0165 c -1.47333,-0.009 -3.40689,-0.0234 -4.29682,-0.0318 z"
       id="path176" /><path
       style="fill:#f9f9f9;stroke-width:0.0719132"
       d="m 360.98198,167.01662 c -0.831,-0.14261 -0.98813,-0.477 -1.06359,-2.26339 -0.0301,-0.71194 -0.0569,-2.04683 -0.0596,-2.96642 l -0.005,-1.67198 -2.78664,-1.8e-4 c -1.53265,-9e-5 -3.49049,-0.0214 -4.35075,-0.0474 l -1.56411,-0.0472 v -2.90103 -2.90104 h 36.99936 36.99936 v 2.93758 2.93757 l -21.77173,0.0448 c -20.60354,0.0424 -26.23917,0.0917 -30.2575,0.26501 -3.96971,0.1712 -5.91913,0.41793 -6.25767,0.79201 -0.0889,0.0983 -0.14855,0.50293 -0.25567,1.73539 -0.0768,0.88398 -0.17494,1.82669 -0.21801,2.0949 -0.1944,1.2105 -1.0683,1.72779 -3.23873,1.91714 -1.42672,0.12446 -1.80257,0.13734 -2.16979,0.0743 z"
       id="path177" /><path
       style="fill:#f9f9f9;stroke-width:0.0719132"
       d="m 535.75364,179.49545 v -19.38062 l -2.42707,3e-5 c -4.195,5e-5 -22.54616,-0.13831 -38.09604,-0.28724 -19.02318,-0.18219 -18.13661,-0.17073 -18.20105,-0.23517 -0.0513,-0.0513 -0.59686,-4.74341 -0.60194,-5.17674 l -0.002,-0.19777 h 32.64861 32.64861 v 22.32907 22.32906 h -2.9844 -2.9844 z"
       id="path178" /><path
       style="fill:#f9f9f9;stroke-width:0.0719132"
       d="m 535.75364,261.7642 v -18.51766 h -30.1676 -30.1676 l 0.003,-0.19776 c 0.006,-0.37493 0.54711,-4.83496 0.59239,-4.88024 0.025,-0.025 4.92524,-9.8e-4 10.88952,0.0533 14.59366,0.13277 25.5429,0.0599 34.21594,-0.22764 3.10213,-0.10286 3.99688,-0.15728 9.65435,-0.58726 l 4.97999,-0.37848 V 222.05133 207.0742 h 2.9844 2.9844 v 15.12702 15.12702 l 3.29003,0.0495 c 10.73469,0.16152 12.82543,0.26252 14.1879,0.6854 0.56832,0.17639 1.01264,0.53434 1.17883,0.94967 0.10575,0.26431 0.59441,4.06355 0.53083,4.12713 -0.0128,0.0128 -4.21383,0.15844 -9.33572,0.32373 -5.12188,0.16529 -9.31634,0.30542 -9.32101,0.31138 -0.0314,0.0401 -0.32952,20.3136 -0.38934,26.47492 -0.0403,4.15299 -0.0921,8.10912 -0.11514,8.79139 l -0.0418,1.24051 h -2.97667 -2.97667 z"
       id="path179" /><path
       style="fill:#f9f9f9;stroke-width:0.101701"
       d="m 535.75918,202.94371 v -4.06803 h 3.00017 3.00017 v 4.06803 4.06803 h -3.00017 -3.00017 z"
       id="path180" /><path
       style="fill:#f9f9f9;stroke-width:0.101701"
       d="m 562.4251,243.09514 c -0.18649,-0.1865 -0.14705,-0.47847 0.12805,-0.94788 0.25922,-0.44234 0.64359,-0.76069 0.91841,-0.76069 0.34933,0 0.4786,1.01387 0.17678,1.38648 -0.33726,0.41634 -0.96396,0.58136 -1.22324,0.32209 z"
       id="path181" /><path
       style="fill:#f9f9f9;stroke-width:0.101701"
       d="m 566.36204,239.85309 c -1.65507,-0.0424 -3.19119,-0.12608 -3.4136,-0.18596 -0.47405,-0.12765 -0.90298,-0.53515 -0.81222,-0.77165 0.20587,-0.53651 2.71021,-0.93244 7.38759,-1.16796 9.01525,-0.45395 41.07519,-0.52093 48.10442,-0.1005 2.82379,0.16889 4.27143,0.431 4.27143,0.77336 0,0.89256 -4.95741,1.22217 -21.96735,1.46057 -8.10955,0.11366 -29.01748,0.10876 -33.57027,-0.008 z"
       id="path182" /><path
       style="fill:#f9f9f9;stroke-width:0.101701"
       d="m 574.60884,244.02774 c -8.21739,-0.09 -8.67982,-0.12934 -9.10228,-0.77409 -0.24055,-0.36714 -0.16231,-0.87059 0.15913,-1.02383 0.60353,-0.28773 3.6353,-0.54561 8.99401,-0.76502 4.36395,-0.17868 30.06406,-0.17807 35.03588,8.3e-4 8.48533,0.30532 12.20408,0.6261 12.20408,1.05272 0,0.0545 -0.1672,0.16886 -0.37156,0.25425 -1.26565,0.52882 -5.15561,0.83934 -13.25633,1.0582 -3.65743,0.0988 -23.65891,0.3135 -26.18793,0.28109 -0.67122,-0.009 -4.03497,-0.0465 -7.475,-0.0841 z"
       id="path183" /><path
       style="fill:#f9f9f9;stroke-width:0.101701"
       d="m 623.88137,243.04865 c -0.46856,-0.46857 -0.74089,-2.07076 -0.56587,-3.32915 0.12879,-0.92592 0.29354,-1.2862 0.85381,-1.86703 0.48722,-0.50512 0.64327,-0.53497 0.7975,-0.15255 0.16834,0.41741 0.23017,2.90248 0.0942,3.78835 -0.20897,1.36204 -0.71229,2.02778 -1.17969,1.56038 z"
       id="path184" /><path
       style="fill:#f9f9f9;stroke-width:0.101701"
       d="m 627.2898,240.26786 v -2.94932 h 5.98524 5.98523 l 0.069,-22.85723 c 0.0379,-12.57148 0.0958,-23.16614 0.12865,-23.54371 l 0.0597,-0.68648 h 2.88663 2.88662 v 23.54371 23.54371 h 19.57738 19.57738 v 2.94932 2.94932 H 655.86769 627.2898 Z"
       id="path185" /><path
       style="fill:#f9f9f9;stroke-width:0.101701"
       d="m 639.53423,186.95128 c 0.11058,-5.07467 0.29886,-8.65032 0.47007,-8.92734 0.11233,-0.18175 2.49034,-0.27472 10.1987,-0.39869 10.33826,-0.16626 30.77992,-0.29657 58.32022,-0.37176 l 25.24719,-0.0689 v 2.96376 2.96376 h -44.2398 -44.23979 v 3.55952 3.55952 h -2.91403 -2.91403 z"
       id="path186" /><path
       style="fill:#f9f9f9;stroke-width:0.101701"
       d="m 802.07481,251.37866 c -0.0317,-0.2657 -0.0852,-2.13063 -0.11901,-4.14431 -0.0338,-2.01367 -0.0818,-3.73458 -0.10666,-3.82424 -0.0411,-0.14808 -1.27824,-0.16925 -13.493,-0.23089 -12.15072,-0.0613 -20.2208,-0.11862 -49.72439,-0.35308 -5.07332,-0.0403 -9.25506,-0.10415 -9.29276,-0.14185 -0.0377,-0.0377 -0.17559,-1.06592 -0.30643,-2.28492 -0.13083,-1.21901 -0.26527,-2.41088 -0.29876,-2.6486 l -0.0609,-0.43223 h 36.72018 36.72018 V 210.21531 183.11208 H 767.94183 733.7704 v -2.94932 -2.94932 h 37.12075 37.12075 l 0.002,3.27984 c 8.7e-4,1.80392 0.0917,17.90186 0.20183,35.77322 0.11013,17.87135 0.20095,33.19129 0.20182,34.0443 l 0.002,1.55094 h -3.14318 -3.14318 z"
       id="path187" /><path
       style="fill:#f9f9f9;stroke-width:0.101701"
       d="m 802.92627,310.2125 c -0.002,-13.38897 -0.30196,-37.50093 -0.61013,-48.9943 -0.11023,-4.11125 -0.20098,-7.89833 -0.20165,-8.41573 l -0.001,-0.94073 h 3.13818 3.13818 l 0.0653,12.38205 c 0.0359,6.81013 0.0948,21.02026 0.13088,31.57806 l 0.0656,19.19601 h -2.86226 -2.86226 z"
       id="path188" /><path
       style="fill:#f9f9f9;stroke-width:0.101701"
       d="m 803.09621,358.36777 c -0.0373,-21.12958 -0.098,-39.52724 -0.1348,-40.88367 l -0.067,-2.46624 h 2.8502 2.85019 l 0.0644,11.8227 c 0.0354,6.50249 0.0935,24.90014 0.12912,40.88368 l 0.0648,29.06096 h -2.84452 -2.84451 z"
       id="path189" /><path
       style="fill:#f9f9f9;stroke-width:0.101701"
       d="m 803.13027,441.2284 v -44.4432 h 2.83076 2.83076 l 0.0677,19.60281 c 0.0372,10.78154 0.0677,30.78098 0.0677,44.4432 l 3e-5,24.84039 h -2.89847 -2.89847 z"
       id="path190" /><path
       style="fill:#f9f9f9;stroke-width:0.101701"
       d="M 803.13027,541.45442 V 508.65595 H 759.90748 716.6847 v -2.94932 -2.94932 h 43.22278 43.22279 v -8.54285 -8.54286 h 2.8817 2.88169 l 0.0676,9.83954 c 0.0372,5.41175 0.0676,25.34254 0.0676,44.29065 l 5e-5,34.4511 h -2.94932 -2.94932 z"
       id="path191" /><path
       style="fill:#f9f9f9;stroke-width:0.101701"
       d="m 803.13027,579.49048 v -5.23759 h 2.93363 2.93362 l 0.0661,1.29669 c 0.0364,0.71317 0.0663,3.07009 0.0665,5.23758 l 4.1e-4,3.9409 h -3.00017 -3.00017 z"
       id="path192" /><path
       style="fill:#f9f9f9;stroke-width:0.101701"
       d="m 805.78677,587.66951 c -0.30089,-0.0528 -0.74318,-0.18269 -0.98288,-0.28872 -1.50363,-0.66512 -0.0458,-1.64975 2.22477,-1.50264 0.98395,0.0638 1.71552,0.34217 1.97776,0.75269 0.13112,0.20527 0.11921,0.24726 -0.13755,0.48523 -0.51031,0.47294 -2.00781,0.74184 -3.0821,0.55344 z"
       id="path193" /><path
       style="fill:#f9f9f9;stroke-width:0.101701"
       d="m 807.46527,650.29958 c -0.15287,-6.40118 -0.29399,-26.24506 -0.30549,-42.9577 -0.012,-17.48248 -0.008,-17.91906 0.18141,-18.12814 0.22429,-0.24803 0.9807,-0.30091 1.16295,-0.0813 0.64841,0.78128 0.99039,6.68902 1.24038,21.4276 0.13415,7.90857 0.25112,39.30962 0.15315,41.1125 l -0.076,1.39838 h -1.14511 -1.14511 z"
       id="path194" /><path
       style="fill:#f9f9f9;stroke-width:0.101701"
       d="m 803.40476,651.72339 c -0.0329,-0.74115 -0.11563,-6.88514 -0.18381,-13.65332 -0.20283,-20.13382 0.0982,-43.02342 0.62847,-47.79518 0.12939,-1.1642 0.19826,-1.44977 0.30404,-1.26075 0.55695,0.99522 0.90431,14.97595 0.90748,36.5253 0.002,10.87203 -0.14671,26.53646 -0.25754,27.20095 l -0.0551,0.33053 h -0.64183 -0.64184 z"
       id="path195" /><path
       style="fill:#f9f9f9;stroke-width:0.101701"
       d="m 804.00839,662.57158 c -0.19417,-0.94687 -0.38991,-3.76308 -0.53135,-7.64462 l -0.0676,-1.85604 h 0.69002 0.69003 l -0.0703,2.36454 c -0.14568,4.89999 -0.48033,8.25989 -0.71077,7.13612 z"
       id="path196" /><path
       style="fill:#f9f9f9;stroke-width:0.101701"
       d="m 808.14568,663.03688 c -0.1222,-0.0492 -0.26777,-0.17472 -0.3235,-0.27885 -0.0906,-0.16921 -0.31878,-6.45506 -0.31878,-8.78027 v -0.90684 h 1.18402 1.18401 l -0.0703,1.90689 c -0.17081,4.63379 -0.55842,7.32848 -1.14783,7.97978 -0.18367,0.20295 -0.19595,0.20487 -0.50764,0.0793 z"
       id="path197" /><path
       style="fill:#f9f9f9;stroke-width:0.101701"
       d="m 805.3873,665.78319 c -0.9299,-0.13095 -1.70277,-0.37689 -2.00715,-0.63871 l -0.26579,-0.22862 0.20662,-0.26267 c 0.35694,-0.45379 1.18473,-0.64798 2.75861,-0.64715 1.87541,9.9e-4 3.22677,0.36529 3.48886,0.94051 0.0978,0.2147 0.0818,0.27693 -0.11214,0.43392 -0.12448,0.10081 -0.46452,0.23436 -0.75564,0.2968 -0.7316,0.1569 -2.54068,0.21473 -3.31337,0.10592 z"
       id="path198" /><path
       style="fill:#f9f9f9;stroke-width:0.101701"
       d="m 803.14358,701.53129 -0.017,-33.61207 h 3.00204 3.00203 v 33.61207 33.61208 h -2.985 -2.985 z"
       id="path199" /><path
       style="fill:#f9f9f9;stroke-width:0.101701"
       d="m 803.19789,799.79958 c -0.0371,-3.48198 -0.0675,-16.34203 -0.0675,-28.57789 l -9e-5,-22.24703 h -38.1886 -38.18861 v -2.94082 -2.94081 l 35.97662,-0.0553 c 19.78714,-0.0304 36.87948,-0.0927 37.98297,-0.13848 1.17525,-0.0487 2.05143,-0.12825 2.11516,-0.19198 0.0709,-0.0709 0.13045,-1.40591 0.17102,-3.83634 l 0.0622,-3.72755 h 3.03478 3.03477 l 3e-5,16.19583 c 2e-5,8.90771 0.0305,24.8798 0.0677,35.49354 l 0.0677,19.2977 h -3.00035 -3.00035 z"
       id="path200" /><path
       style="fill:#f9f9f9;stroke-width:0.101701"
       d="m 803.80455,888.17747 c -0.0317,-0.62928 -0.10644,-7.98605 -0.16601,-16.34839 -0.0596,-8.36233 -0.1506,-21.06221 -0.20227,-28.22194 -0.0517,-7.15972 -0.12517,-18.52096 -0.16336,-25.24719 l -0.0694,-12.22951 h 2.99984 2.99984 l 0.0657,33.89176 c 0.0362,18.64046 0.095,37.35847 0.13076,41.59557 l 0.065,7.70383 h -2.80121 -2.80122 z"
       id="path201" /><path
       style="fill:#f9f9f9;stroke-width:0.101701"
       d="m 693.80204,950.18946 v -1.37296 h 13.22109 13.22109 l 8.2e-4,-0.73733 c 4.6e-4,-0.40553 0.0665,-6.29782 0.14668,-13.09396 0.0802,-6.79615 0.17154,-15.8348 0.20294,-20.08589 0.0314,-4.25109 0.085,-10.08931 0.11917,-12.97383 l 0.0621,-5.24459 -3.82454,-0.12736 c -5.14192,-0.17123 -6.41446,-0.34818 -7.59289,-1.05583 -0.42246,-0.25369 -0.61371,-0.45546 -0.84135,-0.88767 -0.27162,-0.51573 -0.2901,-0.61884 -0.23691,-1.32211 0.12377,-1.6363 0.59083,-2.43351 1.59306,-2.71911 0.88012,-0.25081 5.0655,-0.27866 11.38796,-0.0758 3.04847,0.0978 5.55892,0.1918 5.57877,0.20883 0.0198,0.017 -0.0613,6.86426 -0.18023,15.21608 -0.45403,31.8727 -0.39889,39.49179 0.30344,41.92762 0.0638,0.22112 0.25994,0.54561 0.43597,0.72109 0.28847,0.28758 0.4003,0.32558 1.13364,0.38526 3.33669,0.27153 25.05522,0.41826 41.23963,0.27862 26.58358,-0.22938 32.67437,-0.52677 33.47384,-1.63445 0.37873,-0.52472 0.55277,-3.3698 0.70923,-11.59388 0.11292,-5.93513 0.0752,-25.04547 -0.0792,-40.09549 l -0.0675,-6.58512 h 2.79659 2.79658 l 0.0677,20.30618 c 0.0372,11.1684 0.0677,25.17258 0.0677,31.12041 v 10.81423 h -57.86769 -57.86769 z"
       id="path202" /><path
       style="fill:#f9f9f9;stroke-width:0.101701"
       d="m 693.80204,952.84589 v -1.28347 h 57.85681 c 52.66402,0 57.86235,0.0144 57.91854,0.16087 0.034,0.0885 0.0617,0.59189 0.0617,1.1187 v 0.95784 l -7.04277,10e-4 c -7.13549,10e-4 -53.0584,0.1352 -89.0898,0.2601 l -19.70451,0.0683 z"
       id="path203" /><path
       style="fill:#f9f9f9;stroke-width:0.101701"
       d="m 629.52721,915.50953 v -38.69711 h 1.41141 1.41142 l 0.0644,1.95773 c 0.0354,1.07676 0.11392,4.1316 0.17447,6.78853 0.0606,2.65693 0.13115,4.8523 0.15688,4.87861 0.0257,0.0263 4.06024,0.0789 8.96556,0.11696 4.90533,0.038 11.21849,0.10364 14.02924,0.14582 l 5.11046,0.0767 v 2.96446 2.96447 l -6.48342,0.12694 c -3.56588,0.0698 -8.24538,0.16807 -10.39889,0.21832 -2.15351,0.0503 -5.68888,0.12334 -7.85638,0.16241 l -3.9409,0.071 -3.1e-4,1.43416 c -10e-4,6.5942 -0.20754,44.24866 -0.25625,46.81808 l -0.0622,3.27985 h 30.97468 30.97467 v 2.62734 2.62734 l -23.50976,0.0677 c -12.93036,0.0372 -27.3922,0.0677 -32.13741,0.0677 h -8.62766 z"
       id="path204" /><path
       style="fill:#f9f9f9;stroke-width:0.101701"
       d="m 598.1017,951.88426 v -2.45756 l 0.48308,0.004 c 1.55154,0.0136 27.03888,-0.55572 27.09524,-0.60526 0.0642,-0.0564 0.19821,-21.50199 0.35394,-56.63104 l 0.0682,-15.38222 h 1.71253 1.71253 v 38.69711 38.6971 l -7.70382,8e-5 c -4.23711,3e-5 -11.30785,0.0304 -15.71276,0.0676 l -8.00893,0.0675 z"
       id="path205" /><path
       style="fill:#f9f9f9;stroke-width:0.101701"
       d="m 564.61288,951.14986 c -4.18936,-0.15692 -5.66594,-0.5 -5.66594,-1.31647 0,-0.82919 1.22389,-1.13401 5.33929,-1.32981 3.13696,-0.14925 23.82913,-0.0668 25.47602,0.10145 2.60464,0.26618 3.51605,0.70081 3.13837,1.49663 -0.10857,0.22875 -0.27996,0.33829 -0.79926,0.5108 -0.90601,0.30097 -2.05575,0.42319 -5.08921,0.54099 -2.93193,0.11386 -19.33404,0.11123 -22.39927,-0.004 z"
       id="path206" /><path
       style="fill:#f9f9f9;stroke-width:0.101701"
       d="m 563.82857,955.11599 c -3.91798,-0.12208 -5.50331,-0.4553 -5.57324,-1.17143 -0.0528,-0.5412 0.21563,-0.73811 1.30181,-0.95484 2.312,-0.46131 6.56065,-0.64739 14.7466,-0.64587 6.32298,10e-4 9.80031,0.0894 13.47534,0.34179 1.8547,0.12739 3.86759,0.37189 4.45007,0.54053 0.60455,0.17504 0.62176,0.42176 0.0471,0.67594 -1.42568,0.63065 -5.03273,0.92802 -13.49771,1.11276 -6.92205,0.15107 -12.20092,0.18678 -14.95,0.10112 z"
       id="path207" /><path
       style="fill:#f9f9f9;stroke-width:0.101701"
       d="m 594.36208,953.52751 c -0.2326,-0.51416 -0.25927,-3.49639 -0.0348,-3.89131 l 0.14105,-0.24815 0.18806,0.23224 c 0.10344,0.12773 0.31017,0.60553 0.45941,1.06176 0.49879,1.52479 0.32523,3.1031 -0.35205,3.20141 -0.17707,0.0257 -0.26375,-0.0511 -0.40166,-0.35595 z"
       id="path208" /><path
       style="fill:#f9f9f9;stroke-width:0.101701"
       d="M 507.6898,951.81667 V 949.325 h 22.5267 22.5267 v 2.49167 2.49167 h -22.5267 -22.5267 z"
       id="path209" /><path
       style="fill:#f9f9f9;stroke-width:0.0359566"
       d="m 556.23383,953.29091 c -0.0951,-0.25508 -0.12992,-0.61387 -0.1525,-1.5731 -0.0214,-0.90748 0.0193,-1.82811 0.0965,-2.18502 0.0518,-0.23924 0.11011,-0.37264 0.1569,-0.35865 0.0842,0.0252 0.20359,0.34804 0.26263,0.71024 0.089,0.54605 0.0884,2.31039 -10e-4,2.82224 -0.0619,0.35449 -0.20235,0.73711 -0.27058,0.73711 -0.0192,0 -0.0606,-0.0688 -0.092,-0.15282 z"
       id="path210" /><path
       style="fill:#f9f9f9;stroke-width:0.0719132"
       d="m 629.22036,876.81941 -3.14872,-0.0187 0.0456,-5.51858 c 0.0256,-3.09396 0.0758,-5.63886 0.11425,-5.79233 0.0987,-0.39332 0.50353,-0.80783 0.95345,-0.97617 0.60226,-0.22533 1.37086,-0.29622 3.21174,-0.29622 h 1.72072 l 10e-4,0.44946 c 6.2e-4,0.2472 0.0639,3.08562 0.14063,6.30759 0.0767,3.22197 0.13286,5.85939 0.12473,5.86093 -0.008,0.002 -1.43171,-0.006 -3.16351,-0.0159 z"
       id="path211" /><path
       style="fill:#f9f9f9;stroke-width:0.287653"
       d="m 628.13539,816.77396 c -1.08263,-0.12577 -2.0398,-0.30005 -2.12704,-0.38729 -0.0872,-0.0872 -0.38622,-27.74201 -0.66438,-61.45504 -0.27816,-33.71302 -0.57608,-61.36674 -0.66203,-61.45269 -0.15072,-0.15072 -81.23508,-0.62299 -112.01245,-0.65241 l -15.02986,-0.0144 v -2.87653 -2.87653 h 19.75178 19.75178 l -0.18924,-36.53192 -0.18924,-36.53193 h 3.16204 3.16204 v 8.00776 8.00776 l 9.53951,0.19035 c 5.24673,0.10469 12.49558,0.19035 16.10856,0.19035 h 6.56907 v 2.84815 2.84815 l -3.2361,0.16878 c -1.77985,0.0928 -9.15815,0.25033 -16.39622,0.35002 l -13.16012,0.18125 v 25.13564 25.13564 h 41.42203 41.42202 v -25.00818 -25.00818 l -1.22252,-0.15005 c -0.67239,-0.0825 -3.32467,-0.28233 -5.89396,-0.44402 -2.77799,-0.17482 -5.07653,-0.46324 -5.6709,-0.71158 -1.07861,-0.45067 -1.17149,-0.66312 -1.55111,-3.54779 l -0.23659,-1.79783 h 9.84201 9.84202 l 0.17434,16.46813 c 0.0959,9.05747 0.25248,34.3961 0.34797,56.30807 0.0955,21.91196 0.19433,39.85856 0.21963,39.88132 0.0253,0.0228 10.69862,0.16886 23.7185,0.32467 13.01988,0.15581 23.72365,0.33443 23.78616,0.39694 0.13281,0.13281 0.75325,4.91622 0.64947,5.00726 -0.0385,0.0338 -10.717,0.18416 -23.72988,0.3341 -13.01289,0.14994 -23.74507,0.3579 -23.84928,0.46212 -0.18598,0.18597 -0.61825,38.26769 -0.65442,57.65205 -0.0172,9.19915 -0.0517,9.84961 -0.52177,9.81431 -0.27687,-0.0208 -1.38918,-0.14071 -2.47182,-0.26648 z"
       id="path212" /><path
       style="fill:#f9f9f9;stroke-width:0.143826"
       d="m 543.12458,622.01358 -0.0358,-8.09024 h -3.16418 c -1.7403,0 -3.16569,-0.0485 -3.16754,-0.10787 -0.0323,-1.03764 -0.42228,-100.48371 -0.42471,-108.30134 l -0.003,-10.96677 h 3.28822 3.28822 l 0.0941,2.76866 c 0.0517,1.52276 0.13296,3.38912 0.18048,4.14746 l 0.0864,1.37881 30.07883,0.0952 c 16.54336,0.0524 44.56036,0.13826 62.26001,0.19088 l 32.18117,0.0957 v 2.76305 2.76305 l -27.4349,0.0898 c -15.08919,0.0494 -43.11371,0.13031 -62.27669,0.17986 l -34.8418,0.0901 -0.0363,60.49698 c -0.02,33.27334 -0.0524,56.85637 -0.0721,52.40674 z"
       id="path213" /><path
       style="fill:#f9f9f9;stroke-width:0.287653"
       d="m 536.37451,490.66404 c -0.23765,-4.65972 -0.25014,-159.34363 -0.013,-160.52953 0.23481,-1.17407 1.32103,-1.54298 3.85082,-1.30787 l 1.9368,0.18001 0.18265,59.43451 c 0.10046,32.68898 0.26417,69.88709 0.36379,82.66248 l 0.18115,23.22798 h -3.1576 -3.1576 z"
       id="path214" /><path
       style="fill:#f9f9f9;stroke-width:0.203401"
       d="m 175.53537,464.77082 v -2.74722 l 49.07058,0.13375 c 30.58953,0.0834 49.11817,0.20648 49.19693,0.32686 0.0695,0.10621 0.18579,0.89326 0.25844,1.74901 0.0726,0.85574 0.18637,1.9449 0.2527,2.42035 l 0.12061,0.86446 H 224.985 175.53537 Z"
       id="path215" /><path
       style="fill:#f9f9f9;stroke-width:0.203401"
       d="m 361.90708,506.9164 c -0.36071,-0.13398 -0.85552,-0.44348 -1.09956,-0.68777 -0.43642,-0.43685 -0.43932,-0.47985 -0.1761,-2.61341 0.30747,-2.49222 0.18936,-11.43007 -0.29693,-22.4693 -0.16016,-3.6358 -0.35556,-8.18945 -0.43423,-10.11922 l -0.14303,-3.50867 h -18.47964 -18.47963 v -2.91622 -2.91621 l 13.78044,-0.13693 c 7.57925,-0.0753 15.9543,-0.19629 18.61123,-0.26885 l 4.83078,-0.13191 v -38.00372 -38.00371 h 3.1834 3.1834 l -0.12637,47.74847 c -0.14529,54.89892 -0.3421,65.8472 -1.28061,71.23872 -0.39157,2.24947 -0.78683,2.93895 -1.71535,2.99213 -0.38607,0.0221 -0.99708,-0.0694 -1.3578,-0.2034 z"
       id="path216" /><path
       style="fill:#f9f9f9;stroke-width:0.203401"
       d="m 361.03742,617.21442 v -63.46823 l 0.96615,0.11242 c 0.53139,0.0618 1.68281,0.19431 2.55872,0.29441 0.87591,0.1001 1.6217,0.21284 1.6573,0.25054 0.0793,0.084 0.51781,97.24426 0.51505,114.12586 l -0.002,12.15323 h -2.84762 -2.84761 z"
       id="path217" /><path
       style="fill:#f9f9f9;stroke-width:0.203401"
       d="m 317.50952,689.96851 v -2.98041 h 21.76395 21.76395 v -3.15272 -3.15273 h 2.84761 2.84762 v 3.12958 3.12958 l 5.54269,0.12288 c 3.04848,0.0676 10.75993,0.17093 17.13657,0.22966 6.37663,0.0587 12.62359,0.16212 13.88214,0.22975 l 2.28826,0.12298 v 2.29208 2.29209 l -4.52568,0.12015 c -2.48912,0.0661 -16.1043,0.1681 -30.25595,0.22669 -14.15165,0.0586 -31.93147,0.166 -39.51071,0.23869 l -13.78045,0.13215 z"
       id="path218" /><path
       style="fill:#f9f9f9;stroke-width:0.203401"
       d="m 410.00162,733.0585 c -0.1957,-1.20529 -0.52908,-6.45628 -0.76837,-12.10238 -0.30028,-7.08507 -0.48784,-29.02911 -0.25557,-29.89969 0.25411,-0.95242 0.77302,-1.03301 1.0562,-0.16402 0.45454,1.39483 0.63958,3.73346 0.85786,10.84228 0.32855,10.69975 -0.0175,28.74889 -0.60244,31.42552 l -0.15558,0.7119 z"
       id="path219" /><path
       style="fill:#f9f9f9;stroke-width:0.406803"
       d="m 360.07703,320.66225 c 0.0311,-35.4071 0.16844,-72.70582 0.3051,-82.88606 l 0.24848,-18.50952 2.11824,0.0164 c 1.16504,0.009 2.25714,0.15533 2.42691,0.32509 0.50414,0.50415 0.89469,5.74692 0.92154,12.37107 l 0.0251,6.20374 19.83163,8.4e-4 c 10.9074,4.5e-4 24.63699,0.12136 30.51021,0.26868 l 10.67857,0.26786 v 2.10581 2.10581 l -18.37291,0.26972 c -10.1051,0.14834 -23.83469,0.26972 -30.5102,0.26972 h -12.1373 v 70.78367 70.78368 h -3.05102 -3.05102 z"
       id="path220" /></g></svg>
