<svg xmlns="http://www.w3.org/2000/svg" width="886" height="1183" viewBox="0 0 886 1183">
<g>
<path d="M 785.37 1158.32 C741.99,1158.68 553.91,1158.99 367.42,1159.00 L 28.33 1159.03 L 27.67 970.77 C26.75,711.79 26.83,29.23 27.77,28.64 C28.19,28.38 215.12,27.84 443.16,27.43 L 857.77 26.70 L 858.38 44.10 C858.71,53.67 859.21,90.07 859.49,125.00 C859.78,159.93 860.24,213.93 860.53,245.00 C861.21,319.10 862.77,675.46 863.59,944.08 L 864.24 1157.67 ZM 29.76 1029.25 L 30.02 1157.00 L 862.28 1157.00 L 861.64 936.75 C860.53,557.28 858.72,211.26 857.15,82.18 L 856.50 28.98 L 632.00 28.98 C508.52,28.99 322.33,29.29 218.23,29.66 L 28.96 30.33 L 29.23 465.92 C29.38,705.49 29.62,958.99 29.76,1029.25 ZM 851.99 1048.25 L 852.00 1152.00 L 40.24 1152.00 L 39.62 1107.75 C38.70,1040.94 37.92,89.37 38.76,59.50 L 39.50 33.50 L 442.49 32.79 C664.14,32.40 845.81,32.41 846.21,32.81 C847.05,33.65 848.69,201.20 849.51,371.50 C850.93,664.83 851.99,952.70 851.99,1048.25 ZM 41.75 1105.75 L 42.00 1150.00 L 850.00 1150.00 L 850.02 1139.25 C850.14,1052.69 849.84,876.41 849.51,842.50 C849.27,818.30 848.83,722.22 848.53,629.00 C848.24,535.78 847.75,424.85 847.44,382.50 C847.14,340.15 846.48,244.58 845.98,170.11 C845.47,95.65 844.88,34.54 844.65,34.32 C844.43,34.10 663.56,34.23 442.73,34.62 L 41.22 35.33 L 40.47 64.91 C39.93,86.12 40.70,851.95 41.45,1049.00 C41.48,1055.88 41.61,1081.41 41.75,1105.75 ZM 654.00 945.00 L 654.00 1096.00 L 355.00 1096.00 L 355.00 944.73 L 291.45 945.19 C256.50,945.45 227.72,945.35 227.49,944.98 C227.26,944.61 227.03,891.70 226.97,827.40 C226.92,763.11 226.61,705.21 226.28,698.75 L 225.69 687.00 L 91.00 687.00 L 91.00 116.00 L 189.00 116.00 L 189.00 150.00 L 421.96 150.00 L 422.50 106.50 L 425.40 106.17 C436.55,104.90 454.03,115.66 461.48,128.38 C464.63,133.76 467.94,144.51 468.12,149.98 C468.18,151.92 468.44,152.71 468.69,151.75 C469.11,150.13 471.60,150.00 503.07,150.00 L 537.00 150.00 L 537.00 190.94 C537.00,213.46 537.34,232.05 537.75,232.25 C538.16,232.46 558.86,232.44 583.75,232.21 L 629.00 231.78 L 629.00 173.00 L 798.86 173.00 L 799.22 195.75 C799.42,208.26 799.67,309.17 799.78,420.00 C799.89,530.83 800.28,694.29 800.65,783.25 L 801.32 945.00 ZM 407.00 702.54 L 407.00 724.26 L 410.95 723.73 C418.08,722.78 428.73,717.09 433.73,711.57 C439.14,705.59 443.62,696.32 444.58,689.14 C444.95,686.31 445.61,684.00 446.04,684.00 C446.46,684.00 447.12,686.23 447.49,688.96 C448.49,696.18 454.15,707.25 459.52,712.46 C464.74,717.54 474.47,722.65 480.75,723.61 L 485.00 724.26 L 485.00 702.53 C485.00,681.65 485.08,680.79 487.00,680.29 C488.10,680.00 489.00,679.15 489.00,678.40 C489.00,677.31 492.81,676.99 508.25,676.77 L 527.50 676.50 L 527.10 499.78 L 526.70 323.06 L 529.60 321.88 C531.19,321.23 535.35,320.37 538.82,319.97 C548.21,318.89 556.30,315.30 563.05,309.20 C569.70,303.20 574.92,293.88 575.75,286.54 L 576.26 282.00 L 553.63 282.00 C534.18,282.00 531.00,281.79 531.00,280.50 C531.00,279.67 530.11,279.00 529.00,279.00 C527.07,279.00 527.00,278.33 527.00,261.00 L 527.00 243.00 L 468.00 243.00 L 468.00 233.00 L 527.00 233.00 L 527.00 160.00 L 498.00 160.00 C469.67,160.00 469.00,159.95 469.00,158.00 C469.00,156.90 468.57,156.00 468.05,156.00 C467.52,156.00 466.83,154.31 466.51,152.25 C463.95,135.75 461.49,129.58 454.47,122.07 C451.90,119.33 447.71,115.75 445.15,114.13 C440.88,111.42 431.49,108.00 428.32,108.00 C427.27,108.00 427.00,112.63 427.00,130.99 C427.00,152.90 426.91,154.04 425.00,155.23 C423.90,155.92 423.00,157.27 423.00,158.24 C423.00,159.88 421.01,160.00 394.06,160.00 L 365.12 160.00 L 364.81 163.75 C364.54,167.01 364.14,167.54 361.75,167.82 C360.24,167.99 359.00,168.55 359.00,169.07 C359.00,169.62 349.39,170.00 335.50,170.00 L 312.00 170.00 L 312.00 172.41 C312.00,173.74 312.88,177.64 313.95,181.07 C319.11,197.66 334.36,209.75 352.48,211.61 C356.10,211.98 359.30,212.67 359.59,213.14 C359.88,213.61 360.93,214.00 361.93,214.00 C364.02,214.00 364.97,218.10 364.99,227.25 L 365.00 233.00 L 424.00 233.00 L 424.00 242.97 L 364.50 243.50 L 364.90 372.75 L 365.30 502.00 L 362.18 503.09 C360.46,503.69 359.16,504.70 359.28,505.34 C359.44,506.18 353.74,506.57 338.28,506.77 L 317.06 507.04 L 317.67 510.27 C319.27,518.67 322.39,524.56 328.41,530.57 C336.02,538.15 343.72,542.05 352.49,542.75 C356.07,543.04 359.00,543.63 359.00,544.07 C359.00,544.51 360.24,545.01 361.75,545.18 L 364.50 545.50 L 364.76 611.25 L 365.01 677.00 L 384.01 677.00 C399.51,677.00 403.00,677.25 403.00,678.38 C403.00,679.14 403.90,680.00 405.00,680.29 C406.92,680.79 407.00,681.65 407.00,702.54 ZM 452.12 936.25 C452.18,936.94 452.63,935.03 453.12,932.00 C455.19,919.16 465.87,904.14 476.92,898.54 C482.50,895.71 495.36,892.54 497.66,893.42 C498.72,893.83 499.00,898.22 499.00,914.47 L 499.00 935.00 L 616.01 935.00 L 615.95 851.00 L 580.00 851.00 L 580.01 848.25 C580.05,840.50 584.53,830.32 591.47,822.28 C595.84,817.20 607.08,811.39 615.00,810.12 C618.03,809.63 619.26,809.18 617.75,809.12 L 615.00 809.00 L 615.00 687.00 L 488.96 687.00 L 489.14 706.04 C489.24,716.63 488.91,725.49 488.40,726.00 C487.83,726.57 484.91,726.39 480.86,725.54 C465.08,722.24 453.01,711.97 447.99,697.58 C446.53,693.39 446.09,692.85 445.48,694.50 C441.20,705.97 435.93,713.43 428.51,718.52 C422.35,722.74 413.14,726.00 407.34,726.00 L 403.00 726.00 L 403.00 687.00 L 237.00 687.00 L 237.00 935.00 L 344.50 935.00 C429.77,935.00 452.02,935.26 452.12,936.25 ZM 187.29 454.24 C234.70,454.39 273.67,454.41 273.87,454.30 C274.07,454.18 274.64,451.93 275.12,449.30 C276.49,441.87 281.80,432.07 287.41,426.60 C293.77,420.41 303.51,415.74 311.23,415.18 L 317.00 414.76 L 317.00 454.00 L 354.00 454.00 L 354.00 334.50 C354.00,221.40 354.09,214.99 355.75,214.89 C356.71,214.83 354.14,214.17 350.03,213.42 C336.17,210.89 324.26,203.10 316.94,191.79 C312.80,185.38 309.67,175.30 310.17,170.00 L 310.50 166.50 L 354.00 165.96 L 354.00 159.83 L 260.25 160.16 L 166.50 160.50 L 166.50 150.50 L 172.78 150.20 L 179.06 149.90 L 178.78 138.20 L 178.50 126.50 L 101.00 125.98 L 101.00 150.00 L 111.06 150.00 C120.45,150.00 122.43,149.61 141.16,144.00 C160.77,138.13 165.40,137.07 163.45,138.88 C162.51,139.76 152.92,142.79 131.30,149.05 L 120.10 152.29 L 119.80 156.40 L 119.50 160.50 L 110.23 160.79 L 100.97 161.08 L 101.02 307.53 L 101.07 453.99 ZM 537.66 443.84 L 538.33 495.02 L 599.41 494.76 L 660.50 494.50 L 660.77 474.75 L 661.04 455.00 L 663.81 455.00 C668.37,455.00 678.20,457.93 682.92,460.69 C685.34,462.11 689.21,465.15 691.50,467.45 C696.23,472.18 702.46,483.87 703.49,489.94 L 704.18 494.00 L 790.00 494.00 L 790.00 434.75 C790.00,402.16 789.70,345.44 789.33,308.69 L 788.67 241.88 L 752.46 242.07 L 716.25 242.27 L 714.55 248.38 C713.62,251.75 711.68,256.65 710.25,259.29 C704.97,268.98 692.98,276.92 682.27,277.81 L 677.05 278.24 L 676.77 260.37 C676.62,250.54 676.16,242.61 675.75,242.75 C675.34,242.89 643.95,243.00 606.00,243.00 L 537.00 243.00 L 537.00 278.00 L 578.23 278.00 L 577.83 284.35 C576.73,301.63 561.53,317.80 543.10,321.30 L 537.00 322.46 L 537.00 357.56 C537.00,376.87 537.30,415.70 537.66,443.84 ZM 676.94 777.27 C677.06,778.88 688.67,775.04 693.32,771.86 C704.85,763.97 711.96,751.73 711.99,739.75 C712.00,737.14 712.45,735.00 713.00,735.00 C713.55,735.00 714.00,734.33 714.00,733.50 C714.00,732.19 718.89,732.00 752.00,732.00 L 790.00 732.00 L 790.00 505.00 L 705.23 505.00 L 704.49 502.75 C704.09,501.51 703.18,497.46 702.47,493.75 C699.15,476.25 689.28,464.15 674.20,459.07 C673.47,458.82 672.80,458.58 672.18,458.37 C669.45,457.41 667.76,456.81 666.70,457.39 C664.95,458.34 664.96,462.51 664.99,473.58 C665.00,475.10 665.00,476.74 665.00,478.53 C665.00,498.10 664.84,500.13 663.25,500.78 C662.29,501.18 661.50,502.17 661.50,503.00 C661.50,504.31 653.86,504.53 599.75,504.76 L 538.00 505.02 L 538.00 619.95 L 570.50 620.50 L 571.10 631.00 L 538.00 631.00 L 538.00 677.00 L 615.00 677.00 L 615.00 631.00 L 601.00 631.00 L 601.00 620.00 L 625.00 620.00 L 625.00 732.00 L 649.00 732.00 C667.81,732.00 673.00,732.28 673.00,733.28 C673.00,733.98 673.92,735.35 675.05,736.31 C677.00,737.98 677.10,739.07 677.00,757.29 C676.93,767.85 676.91,776.85 676.94,777.27 ZM 101.66 656.75 L 102.32 677.00 L 355.09 677.00 L 354.87 611.11 L 354.65 545.21 L 349.95 544.59 C332.72,542.30 315.09,522.70 315.01,505.75 L 315.00 503.00 L 327.25 502.81 C333.99,502.70 342.65,502.59 346.50,502.56 C350.35,502.52 353.61,502.16 353.75,501.75 C353.89,501.34 354.00,492.67 354.00,482.50 L 354.00 464.00 L 335.50 464.00 C318.05,464.00 317.00,463.89 317.00,462.12 C317.00,461.07 316.11,460.00 315.00,459.71 C313.08,459.21 313.00,458.35 313.00,437.97 L 313.00 416.74 L 308.75 417.42 C292.52,420.00 279.35,434.21 276.77,451.95 C276.12,456.38 275.23,460.00 274.80,460.00 C274.36,460.00 274.00,461.01 274.00,462.25 L 274.00 464.50 L 203.25 464.73 C164.34,464.85 125.41,464.96 116.75,464.98 L 101.00 465.00 L 101.00 550.75 C101.00,597.91 101.30,645.61 101.66,656.75 ZM 357.82 1047.25 L 358.00 1094.00 L 652.26 1094.00 L 651.64 1090.25 C651.30,1088.19 651.02,1054.66 651.01,1015.75 L 651.00 945.00 L 575.56 945.01 L 500.12 945.03 L 497.56 942.47 L 495.00 939.91 L 495.00 918.12 C495.00,906.14 494.76,896.09 494.47,895.80 C493.35,894.69 484.24,897.13 478.26,900.14 C470.95,903.83 463.32,911.47 459.59,918.82 C456.74,924.45 453.59,936.48 454.40,938.61 C454.68,939.34 454.33,940.53 453.62,941.24 C452.90,941.95 452.13,943.11 451.90,943.81 C451.56,944.81 441.47,945.12 404.49,945.29 L 357.50 945.50 L 357.57 973.00 C357.61,988.12 357.72,1021.54 357.82,1047.25 ZM 718.67 934.33 C719.03,934.70 735.53,935.00 755.33,935.00 L 791.33 935.00 L 790.66 886.84 C790.30,860.35 790.00,816.92 790.00,790.34 L 790.00 742.00 L 752.50 742.00 C723.21,742.00 714.98,741.73 714.91,740.75 C714.87,740.06 713.97,742.83 712.92,746.91 C709.74,759.23 703.13,768.24 692.81,774.34 C686.98,777.78 676.33,780.72 673.55,779.66 C672.23,779.15 672.00,776.35 672.00,760.53 L 672.00 742.00 L 624.89 742.00 L 625.06 775.75 C625.22,806.12 625.07,809.53 623.62,809.82 C622.73,810.00 622.00,810.50 622.00,810.93 C622.00,811.37 619.33,811.96 616.06,812.26 C603.33,813.42 591.60,821.87 586.26,833.75 C584.59,837.46 582.96,841.96 582.64,843.75 L 582.05 847.00 L 619.79 847.00 L 622.89 849.90 L 626.00 852.80 L 626.00 865.15 L 626.00 877.50 L 640.50 877.20 C654.40,876.91 655.00,876.98 655.00,878.88 C655.00,879.99 655.89,881.15 657.00,881.50 C658.91,882.11 659.00,883.01 659.00,902.70 L 659.00 923.26 L 662.67 922.67 C678.06,920.17 692.44,903.89 693.76,887.45 C694.04,883.90 694.61,881.00 695.02,881.00 C695.43,881.00 696.00,880.10 696.29,879.00 C696.77,877.16 697.65,877.00 707.41,877.00 L 718.00 877.00 L 718.00 905.33 C718.00,920.92 718.30,933.97 718.67,934.33 ZM 681.00 257.05 C681.00,258.32 681.00,259.50 681.00,260.62 C680.98,270.77 680.97,274.84 682.70,275.81 C683.85,276.45 685.78,275.72 688.99,274.49 C689.52,274.28 690.09,274.07 690.69,273.84 C702.74,269.33 712.68,255.85 713.75,242.55 C714.09,238.27 714.71,236.00 715.52,236.00 C716.21,236.00 717.00,235.10 717.29,234.00 C717.80,232.05 718.65,232.00 753.41,232.00 L 789.00 232.00 L 789.00 182.70 L 738.75 183.34 C711.11,183.69 677.36,183.99 663.75,183.99 L 639.00 184.00 L 639.00 231.96 L 658.25 232.23 C676.11,232.48 677.50,232.63 677.51,234.32 C677.51,235.33 678.30,236.59 679.26,237.12 C680.82,238.00 681.00,240.07 681.00,257.05 ZM 618.00 758.25 L 618.00 807.00 L 623.00 807.00 L 623.00 740.00 L 670.00 740.00 L 670.00 734.00 L 623.00 734.00 L 623.00 623.00 L 603.00 623.00 L 603.00 625.50 C603.00,627.86 603.31,628.00 608.42,628.00 C609.04,628.00 609.63,627.99 610.17,627.98 C612.39,627.95 613.90,627.92 614.91,628.61 C617.04,630.06 617.03,634.64 617.01,648.79 C617.00,650.43 617.00,652.20 617.00,654.11 L 617.00 679.00 L 536.04 679.00 L 535.49 676.75 C535.18,675.51 535.06,664.15 535.22,651.50 L 535.50 628.50 L 568.00 627.95 L 568.00 623.05 L 535.50 622.50 L 535.50 503.50 L 659.00 502.98 L 659.00 497.02 L 535.50 496.50 L 535.24 410.75 L 534.99 325.00 L 530.00 325.00 L 530.00 679.00 L 492.00 679.00 L 492.00 684.00 L 616.69 684.00 L 617.34 696.75 C617.70,703.76 617.99,731.44 618.00,758.25 ZM 792.00 503.32 L 792.00 578.00 L 798.31 578.00 L 797.58 376.76 C797.18,266.08 796.73,175.40 796.58,175.24 C796.42,175.09 759.11,175.27 713.65,175.65 L 631.00 176.33 L 631.00 235.00 L 625.00 235.00 C619.27,235.00 619.00,235.11 619.00,237.50 L 619.00 240.00 L 675.00 240.00 L 675.00 235.04 L 636.50 234.50 L 636.50 181.50 L 792.03 180.99 L 791.50 234.50 L 755.25 234.76 L 719.00 235.02 L 719.00 239.98 L 755.25 240.24 L 791.50 240.50 L 792.01 497.00 L 707.00 497.00 L 707.00 502.00 L 719.34 502.00 C726.12,502.00 745.25,502.30 761.84,502.66 ZM 94.00 118.00 L 94.00 530.00 L 99.00 530.00 L 99.00 462.00 L 271.00 462.00 L 271.00 457.00 L 99.00 457.00 L 99.00 158.00 L 108.50 158.00 C117.97,158.00 118.00,157.99 118.00,155.50 C118.00,153.01 117.97,153.00 108.50,153.00 L 99.00 153.00 L 99.00 124.00 L 181.00 124.00 L 181.00 153.00 L 175.00 153.00 C169.27,153.00 169.00,153.11 169.00,155.50 L 169.00 158.00 L 224.00 158.00 L 224.00 153.00 L 187.00 153.00 L 186.99 145.25 C186.99,140.99 186.70,133.11 186.34,127.75 L 185.70 118.00 ZM 590.00 938.06 L 590.00 943.00 L 798.00 943.00 L 798.00 659.00 L 793.00 659.00 L 793.00 734.00 L 717.00 734.00 L 717.00 740.00 L 793.01 740.00 L 792.50 937.50 L 716.50 937.50 L 716.23 908.75 L 715.97 880.00 L 707.48 880.00 C699.15,880.00 699.00,880.04 699.00,882.45 C699.00,884.73 699.40,884.92 704.75,885.20 L 710.50 885.50 L 710.77 911.76 L 711.03 938.02 L 667.27 937.76 L 623.50 937.50 L 622.98 854.00 L 618.02 854.00 L 617.50 937.50 L 603.75 937.78 ZM 229.00 685.00 L 229.00 768.00 L 235.19 768.00 L 233.72 685.00 L 308.11 684.75 C349.02,684.62 386.55,684.50 391.50,684.50 L 400.50 684.50 L 400.81 681.77 L 401.13 679.04 L 381.81 678.77 L 362.50 678.50 L 362.24 613.25 L 361.99 548.00 L 357.00 548.00 L 357.00 679.00 L 99.00 679.00 L 99.00 611.00 L 94.00 611.00 L 94.00 685.00 ZM 626.00 888.00 L 626.00 935.00 L 709.29 935.00 L 708.65 928.25 C708.30,924.54 708.01,913.96 708.01,904.75 L 708.00 888.00 L 702.57 888.00 C697.41,888.00 697.11,887.86 696.72,885.25 C696.36,882.92 696.28,883.05 696.15,886.07 C695.38,904.45 678.39,922.87 660.50,924.71 C656.24,925.15 654.97,924.97 654.85,923.89 C654.76,923.13 654.59,922.05 654.46,921.50 C654.34,920.95 654.18,913.19 654.12,904.25 L 654.00 888.00 ZM 356.77 481.75 L 357.04 501.00 L 361.99 501.00 L 362.50 240.50 L 422.00 239.97 L 422.00 235.00 L 362.00 235.00 L 362.00 226.00 C362.00,217.07 361.98,217.00 359.50,217.00 L 357.01 217.00 L 356.75 336.75 L 356.50 456.50 L 354.00 456.61 C352.62,456.67 344.41,456.78 335.75,456.86 L 320.00 457.00 L 320.00 461.95 L 356.50 462.50 ZM 529.67 276.33 C530.03,276.70 531.37,277.00 532.64,277.00 L 534.95 277.00 L 535.23 258.75 L 535.50 240.50 L 544.25 240.21 C552.80,239.93 553.00,239.87 553.00,237.46 C553.00,235.03 552.90,235.00 544.00,235.00 L 535.00 235.00 L 535.00 151.97 L 503.25 152.24 L 471.50 152.50 L 471.50 157.50 L 529.00 158.03 L 529.00 235.00 L 470.00 235.00 L 470.00 240.78 L 499.50 240.24 L 529.00 239.70 L 529.00 257.68 C529.00,267.57 529.30,275.97 529.67,276.33 ZM 229.00 855.00 L 229.00 943.00 L 296.00 943.00 L 296.00 938.00 L 235.00 938.00 L 235.00 855.00 ZM 356.00 161.50 C356.00,164.72 356.24,165.00 359.00,165.00 C361.76,165.00 362.00,164.72 362.00,161.50 L 362.00 158.00 L 420.00 158.00 L 420.00 152.00 L 315.00 152.00 L 315.00 158.00 L 356.00 158.00 ZM 373.28 938.00 L 374.23 943.00 L 449.00 943.00 L 449.00 938.00 ZM 501.00 938.00 L 501.00 943.00 L 546.00 943.00 L 546.00 938.00 ZM 232.64 849.31 C232.99,849.66 233.67,849.71 234.14,849.41 C234.61,849.12 235.00,831.81 235.00,810.94 C235.00,777.88 234.81,773.00 233.50,773.00 C232.19,773.00 232.00,777.87 232.00,810.83 C232.00,831.64 232.29,848.95 232.64,849.31 ZM 301.44 939.11 C301.74,939.40 336.24,939.35 367.81,939.01 C368.53,939.01 368.84,938.55 368.50,938.00 C368.11,937.37 355.84,937.00 335.00,937.00 C306.30,937.00 299.75,937.41 301.44,939.11 ZM 229.00 153.00 C229.00,153.65 243.17,154.00 269.50,154.00 C295.83,154.00 310.00,153.65 310.00,153.00 C310.00,152.35 295.83,152.00 269.50,152.00 C243.17,152.00 229.00,152.35 229.00,153.00 ZM 626.00 880.00 L 626.00 885.00 L 652.75 885.00 L 652.75 880.00 ZM 229.50 157.00 C229.09,157.66 242.66,158.00 269.44,158.00 C295.81,158.00 310.00,157.65 310.00,157.00 C310.00,156.35 296.02,156.00 270.06,156.00 C244.51,156.00 229.90,156.36 229.50,157.00 ZM 229.00 811.50 C229.00,836.99 229.34,849.91 230.00,849.50 C230.64,849.11 231.00,835.34 231.00,811.50 C231.00,787.66 230.64,773.89 230.00,773.50 C229.34,773.09 229.00,786.01 229.00,811.50 ZM 792.67 654.33 C793.03,654.70 793.48,655.00 793.67,655.00 C793.85,655.00 794.00,638.58 794.00,618.50 C794.00,594.83 793.65,582.00 793.00,582.00 C791.87,582.00 791.55,653.21 792.67,654.33 ZM 97.75 606.42 C98.45,607.12 99.87,536.38 99.18,534.73 C99.01,534.31 98.44,534.23 97.93,534.54 C96.82,535.23 96.64,605.31 97.75,606.42 ZM 796.00 618.50 C796.00,642.17 796.35,655.00 797.00,655.00 C797.65,655.00 798.00,642.17 798.00,618.50 C798.00,594.83 797.65,582.00 797.00,582.00 C796.35,582.00 796.00,594.83 796.00,618.50 ZM 94.00 569.94 C94.00,593.31 94.35,606.00 95.00,606.00 C95.65,606.00 96.00,593.52 96.00,570.56 C96.00,548.01 95.64,534.89 95.00,534.50 C94.34,534.09 94.00,546.16 94.00,569.94 ZM 301.50 942.00 C301.09,942.66 312.32,943.00 334.44,943.00 C356.15,943.00 368.00,942.65 368.00,942.00 C368.00,941.35 356.35,941.00 335.06,941.00 C314.18,941.00 301.89,941.37 301.50,942.00 ZM 558.00 236.09 C558.00,236.62 569.84,237.00 586.00,237.00 C601.61,237.00 614.00,236.61 614.00,236.11 C614.00,235.63 612.76,235.06 611.25,234.86 C605.58,234.11 558.00,235.21 558.00,236.09 ZM 558.50 240.00 C558.89,240.63 569.34,241.00 586.56,241.00 C604.19,241.00 614.00,240.64 614.00,240.00 C614.00,239.36 603.98,239.00 585.94,239.00 C567.49,239.00 558.09,239.34 558.50,240.00 ZM 551.50 942.00 C551.10,942.65 556.82,943.00 567.94,943.00 C578.65,943.00 585.00,942.63 585.00,942.00 C585.00,941.37 578.85,941.00 568.56,941.00 C558.68,941.00 551.87,941.40 551.50,942.00 ZM 552.00 938.00 C552.00,938.63 558.17,939.00 568.50,939.00 C578.83,939.00 585.00,938.63 585.00,938.00 C585.00,937.37 578.83,937.00 568.50,937.00 C558.17,937.00 552.00,937.37 552.00,938.00 ZM 226.00 155.06 C226.00,156.84 226.42,157.86 227.00,157.50 C227.55,157.16 228.00,155.78 228.00,154.44 C228.00,153.10 227.55,152.00 227.00,152.00 C226.45,152.00 226.00,153.38 226.00,155.06 ZM 794.50 657.00 C797.23,658.17 798.00,658.17 798.00,657.00 C798.00,656.45 796.76,656.03 795.25,656.07 C792.81,656.13 792.73,656.24 794.50,657.00 Z" fill="rgb(73,70,61)"/>
<path d="M 0.00 591.50 L 0.00 0.00 L 443.00 0.00 L 886.00 0.00 L 886.00 591.50 L 886.00 1183.00 L 443.00 1183.00 L 0.00 1183.00 L 0.00 591.50 ZM 785.37 1158.32 L 864.24 1157.67 L 863.59 944.08 C862.77,675.46 861.21,319.10 860.53,245.00 C860.24,213.93 859.78,159.93 859.49,125.00 C859.21,90.07 858.71,53.67 858.38,44.10 L 857.77 26.70 L 443.16 27.43 C215.12,27.84 28.19,28.38 27.77,28.64 C26.83,29.23 26.75,711.79 27.67,970.77 L 28.33 1159.03 L 367.42 1159.00 C553.91,1158.99 741.99,1158.68 785.37,1158.32 ZM 29.76 1029.25 C29.62,958.99 29.38,705.49 29.23,465.92 L 28.96 30.33 L 218.23 29.66 C322.33,29.29 508.52,28.99 632.00,28.98 L 856.50 28.98 L 857.15 82.18 C858.72,211.26 860.53,557.28 861.64,936.75 L 862.28 1157.00 L 446.15 1157.00 L 30.02 1157.00 L 29.76 1029.25 ZM 851.99 1048.25 C851.99,952.70 850.93,664.83 849.51,371.50 C848.69,201.20 847.05,33.65 846.21,32.81 C845.81,32.41 664.14,32.40 442.49,32.79 L 39.50 33.50 L 38.76 59.50 C37.92,89.37 38.70,1040.94 39.62,1107.75 L 40.24 1152.00 L 446.12 1152.00 L 852.00 1152.00 L 851.99 1048.25 ZM 41.75 1105.75 C41.61,1081.41 41.48,1055.88 41.45,1049.00 C40.70,851.95 39.93,86.12 40.47,64.91 L 41.22 35.33 L 442.73 34.62 C663.56,34.23 844.43,34.10 844.65,34.32 C844.88,34.54 845.47,95.65 845.98,170.11 C846.48,244.58 847.14,340.15 847.44,382.50 C847.75,424.85 848.24,535.78 848.53,629.00 C848.83,722.22 849.27,818.30 849.51,842.50 C849.84,876.41 850.14,1052.69 850.02,1139.25 L 850.00 1150.00 L 446.00 1150.00 L 42.00 1150.00 L 41.75 1105.75 ZM 654.00 1020.50 L 654.00 945.00 L 727.66 945.00 L 801.32 945.00 L 800.65 783.25 C800.28,694.29 799.89,530.83 799.78,420.00 C799.67,309.17 799.42,208.26 799.22,195.75 L 798.86 173.00 L 713.93 173.00 L 629.00 173.00 L 629.00 202.39 L 629.00 231.78 L 583.75 232.21 C558.86,232.44 538.16,232.46 537.75,232.25 C537.34,232.05 537.00,213.46 537.00,190.94 L 537.00 150.00 L 503.07 150.00 C471.60,150.00 469.11,150.13 468.69,151.75 C468.44,152.71 468.18,151.92 468.12,149.98 C467.94,144.51 464.63,133.76 461.48,128.38 C454.03,115.66 436.55,104.90 425.40,106.17 L 422.50 106.50 L 422.23 128.25 L 421.96 150.00 L 305.48 150.00 L 189.00 150.00 L 189.00 133.00 L 189.00 116.00 L 140.00 116.00 L 91.00 116.00 L 91.00 401.50 L 91.00 687.00 L 158.35 687.00 L 225.69 687.00 L 226.28 698.75 C226.61,705.21 226.92,763.11 226.97,827.40 C227.03,891.70 227.26,944.61 227.49,944.98 C227.72,945.35 256.50,945.45 291.45,945.19 L 355.00 944.73 L 355.00 1020.37 L 355.00 1096.00 L 504.50 1096.00 L 654.00 1096.00 L 654.00 1020.50 ZM 357.82 1047.25 C357.72,1021.54 357.61,988.12 357.57,973.00 L 357.50 945.50 L 404.49 945.29 C441.47,945.12 451.56,944.81 451.90,943.81 C452.13,943.11 452.90,941.95 453.62,941.24 C454.33,940.53 454.68,939.34 454.40,938.61 C453.59,936.48 456.74,924.45 459.59,918.82 C463.32,911.47 470.95,903.83 478.26,900.14 C484.24,897.13 493.35,894.69 494.47,895.80 C494.76,896.09 495.00,906.14 495.00,918.12 L 495.00 939.91 L 497.56 942.47 L 500.12 945.03 L 575.56 945.01 L 651.00 945.00 L 651.01 1015.75 C651.02,1054.66 651.30,1088.19 651.64,1090.25 L 652.26 1094.00 L 505.13 1094.00 L 358.00 1094.00 L 357.82 1047.25 ZM 229.00 899.00 L 229.00 855.00 L 232.00 855.00 L 235.00 855.00 L 235.00 896.50 L 235.00 938.00 L 265.50 938.00 L 296.00 938.00 L 296.00 940.50 L 296.00 943.00 L 262.50 943.00 L 229.00 943.00 L 229.00 899.00 ZM 301.50 942.00 C301.89,941.37 314.18,941.00 335.06,941.00 C356.35,941.00 368.00,941.35 368.00,942.00 C368.00,942.65 356.15,943.00 334.44,943.00 C312.32,943.00 301.09,942.66 301.50,942.00 ZM 373.76 940.50 L 373.28 938.00 L 411.14 938.00 L 449.00 938.00 L 449.00 940.50 L 449.00 943.00 L 411.62 943.00 L 374.23 943.00 L 373.76 940.50 ZM 501.00 940.50 L 501.00 938.00 L 523.50 938.00 L 546.00 938.00 L 546.00 940.50 L 546.00 943.00 L 523.50 943.00 L 501.00 943.00 L 501.00 940.50 ZM 551.50 942.00 C551.87,941.40 558.68,941.00 568.56,941.00 C578.85,941.00 585.00,941.37 585.00,942.00 C585.00,942.63 578.65,943.00 567.94,943.00 C556.82,943.00 551.10,942.65 551.50,942.00 ZM 590.00 940.53 L 590.00 938.06 L 603.75 937.78 L 617.50 937.50 L 617.76 895.75 L 618.02 854.00 L 620.50 854.00 L 622.98 854.00 L 623.24 895.75 L 623.50 937.50 L 667.27 937.76 L 711.03 938.02 L 710.77 911.76 L 710.50 885.50 L 704.75 885.20 C699.40,884.92 699.00,884.73 699.00,882.45 C699.00,880.04 699.15,880.00 707.48,880.00 L 715.97 880.00 L 716.23 908.75 L 716.50 937.50 L 754.50 937.50 L 792.50 937.50 L 792.75 838.75 L 793.01 740.00 L 755.00 740.00 L 717.00 740.00 L 717.00 737.00 L 717.00 734.00 L 755.00 734.00 L 793.00 734.00 L 793.00 696.50 L 793.00 659.00 L 795.50 659.00 L 798.00 659.00 L 798.00 801.00 L 798.00 943.00 L 694.00 943.00 L 590.00 943.00 L 590.00 940.53 ZM 301.44 939.11 C299.75,937.41 306.30,937.00 335.00,937.00 C355.84,937.00 368.11,937.37 368.50,938.00 C368.84,938.55 368.53,939.01 367.81,939.01 C336.24,939.35 301.74,939.40 301.44,939.11 ZM 552.00 938.00 C552.00,937.37 558.17,937.00 568.50,937.00 C578.83,937.00 585.00,937.37 585.00,938.00 C585.00,938.63 578.83,939.00 568.50,939.00 C558.17,939.00 552.00,938.63 552.00,938.00 ZM 452.12 936.25 C452.02,935.26 429.77,935.00 344.50,935.00 L 237.00 935.00 L 237.00 811.00 L 237.00 687.00 L 320.00 687.00 L 403.00 687.00 L 403.00 706.50 L 403.00 726.00 L 407.34 726.00 C413.14,726.00 422.35,722.74 428.51,718.52 C435.93,713.43 441.20,705.97 445.48,694.50 C446.09,692.85 446.53,693.39 447.99,697.58 C453.01,711.97 465.08,722.24 480.86,725.54 C484.91,726.39 487.83,726.57 488.40,726.00 C488.91,725.49 489.24,716.63 489.14,706.04 L 488.96 687.00 L 551.98 687.00 L 615.00 687.00 L 615.00 748.00 L 615.00 809.00 L 617.75 809.12 C619.26,809.18 618.03,809.63 615.00,810.12 C607.08,811.39 595.84,817.20 591.47,822.28 C584.53,830.32 580.05,840.50 580.01,848.25 L 580.00 851.00 L 597.97 851.00 L 615.95 851.00 L 615.98 893.00 L 616.01 935.00 L 557.50 935.00 L 499.00 935.00 L 499.00 914.47 C499.00,898.22 498.72,893.83 497.66,893.42 C495.36,892.54 482.50,895.71 476.92,898.54 C465.87,904.14 455.19,919.16 453.12,932.00 C452.63,935.03 452.18,936.94 452.12,936.25 ZM 626.00 911.50 L 626.00 888.00 L 640.00 888.00 L 654.00 888.00 L 654.12 904.25 C654.18,913.19 654.34,920.95 654.46,921.50 C654.59,922.05 654.76,923.13 654.85,923.89 C654.97,924.97 656.24,925.15 660.50,924.71 C678.39,922.87 695.38,904.45 696.15,886.07 C696.28,883.05 696.36,882.92 696.72,885.25 C697.11,887.86 697.41,888.00 702.57,888.00 L 708.00 888.00 L 708.01 904.75 C708.01,913.96 708.30,924.54 708.65,928.25 L 709.29 935.00 L 667.64 935.00 L 626.00 935.00 L 626.00 911.50 ZM 718.67 934.33 C718.30,933.97 718.00,920.92 718.00,905.33 L 718.00 877.00 L 707.41 877.00 C697.65,877.00 696.77,877.16 696.29,879.00 C696.00,880.10 695.43,881.00 695.02,881.00 C694.61,881.00 694.04,883.90 693.76,887.45 C692.44,903.89 678.06,920.17 662.67,922.67 L 659.00 923.26 L 659.00 902.70 C659.00,883.01 658.91,882.11 657.00,881.50 C655.89,881.15 655.00,879.99 655.00,878.88 C655.00,876.98 654.40,876.91 640.50,877.20 L 626.00 877.50 L 626.00 865.15 L 626.00 852.80 L 622.89 849.90 L 619.79 847.00 L 600.92 847.00 L 582.05 847.00 L 582.64 843.75 C582.96,841.96 584.59,837.46 586.26,833.75 C591.60,821.87 603.33,813.42 616.06,812.26 C619.33,811.96 622.00,811.37 622.00,810.93 C622.00,810.50 622.73,810.00 623.62,809.82 C625.07,809.53 625.22,806.12 625.06,775.75 L 624.89 742.00 L 648.45 742.00 L 672.00 742.00 L 672.00 760.53 C672.00,776.35 672.23,779.15 673.55,779.66 C676.33,780.72 686.98,777.78 692.81,774.34 C703.13,768.24 709.74,759.23 712.92,746.91 C713.97,742.83 714.87,740.06 714.91,740.75 C714.98,741.73 723.21,742.00 752.50,742.00 L 790.00 742.00 L 790.00 790.34 C790.00,816.92 790.30,860.35 790.66,886.84 L 791.33 935.00 L 755.33 935.00 C735.53,935.00 719.03,934.70 718.67,934.33 ZM 626.00 882.50 L 626.00 880.00 L 639.38 880.00 L 652.75 880.00 L 652.75 882.50 L 652.75 885.00 L 639.38 885.00 L 626.00 885.00 L 626.00 882.50 ZM 229.00 811.50 C229.00,786.01 229.34,773.09 230.00,773.50 C230.64,773.89 231.00,787.66 231.00,811.50 C231.00,835.34 230.64,849.11 230.00,849.50 C229.34,849.91 229.00,836.99 229.00,811.50 ZM 232.64 849.31 C232.29,848.95 232.00,831.64 232.00,810.83 C232.00,777.87 232.19,773.00 233.50,773.00 C234.81,773.00 235.00,777.88 235.00,810.94 C235.00,831.81 234.61,849.12 234.14,849.41 C233.67,849.71 232.99,849.66 232.64,849.31 ZM 618.00 758.25 C617.99,731.44 617.70,703.76 617.34,696.75 L 616.69 684.00 L 554.35 684.00 L 492.00 684.00 L 492.00 681.50 L 492.00 679.00 L 511.00 679.00 L 530.00 679.00 L 530.00 502.00 L 530.00 325.00 L 532.49 325.00 L 534.99 325.00 L 535.24 410.75 L 535.50 496.50 L 597.25 496.76 L 659.00 497.02 L 659.00 500.00 L 659.00 502.98 L 597.25 503.24 L 535.50 503.50 L 535.50 563.00 L 535.50 622.50 L 551.75 622.77 L 568.00 623.05 L 568.00 625.50 L 568.00 627.95 L 551.75 628.23 L 535.50 628.50 L 535.22 651.50 C535.06,664.15 535.18,675.51 535.49,676.75 L 536.04 679.00 L 576.52 679.00 L 617.00 679.00 L 617.00 654.11 C617.00,625.97 617.67,628.00 608.42,628.00 C603.31,628.00 603.00,627.86 603.00,625.50 L 603.00 623.00 L 613.00 623.00 L 623.00 623.00 L 623.00 678.50 L 623.00 734.00 L 646.50 734.00 L 670.00 734.00 L 670.00 737.00 L 670.00 740.00 L 646.50 740.00 L 623.00 740.00 L 623.00 773.50 L 623.00 807.00 L 620.50 807.00 L 618.00 807.00 L 618.00 758.25 ZM 676.94 777.27 C676.91,776.85 676.93,767.85 677.00,757.29 C677.10,739.07 677.00,737.98 675.05,736.31 C673.92,735.35 673.00,733.98 673.00,733.28 C673.00,732.28 667.81,732.00 649.00,732.00 L 625.00 732.00 L 625.00 676.00 L 625.00 620.00 L 613.00 620.00 L 601.00 620.00 L 601.00 625.50 L 601.00 631.00 L 608.00 631.00 L 615.00 631.00 L 615.00 654.00 L 615.00 677.00 L 576.50 677.00 L 538.00 677.00 L 538.00 654.00 L 538.00 631.00 L 554.55 631.00 L 571.10 631.00 L 570.80 625.75 L 570.50 620.50 L 554.25 620.23 L 538.00 619.95 L 538.00 562.48 L 538.00 505.02 L 599.75 504.76 C653.86,504.53 661.50,504.31 661.50,503.00 C661.50,502.17 662.29,501.18 663.25,500.78 C664.84,500.13 665.00,498.10 665.00,478.53 C665.00,454.05 664.22,455.70 674.20,459.07 C689.28,464.15 699.15,476.25 702.47,493.75 C703.18,497.46 704.09,501.51 704.49,502.75 L 705.23 505.00 L 747.62 505.00 L 790.00 505.00 L 790.00 618.50 L 790.00 732.00 L 752.00 732.00 C718.89,732.00 714.00,732.19 714.00,733.50 C714.00,734.33 713.55,735.00 713.00,735.00 C712.45,735.00 712.00,737.14 711.99,739.75 C711.96,751.73 704.85,763.97 693.32,771.86 C688.67,775.04 677.06,778.88 676.94,777.27 ZM 229.00 726.50 L 229.00 685.00 L 161.50 685.00 L 94.00 685.00 L 94.00 648.00 L 94.00 611.00 L 96.50 611.00 L 99.00 611.00 L 99.00 645.00 L 99.00 679.00 L 228.00 679.00 L 357.00 679.00 L 357.00 613.50 L 357.00 548.00 L 359.49 548.00 L 361.99 548.00 L 362.24 613.25 L 362.50 678.50 L 381.81 678.77 L 401.13 679.04 L 400.81 681.77 L 400.50 684.50 L 391.50 684.50 C386.55,684.50 349.02,684.62 308.11,684.75 L 233.72 685.00 L 234.46 726.50 L 235.19 768.00 L 232.10 768.00 L 229.00 768.00 L 229.00 726.50 ZM 407.00 702.54 C407.00,681.65 406.92,680.79 405.00,680.29 C403.90,680.00 403.00,679.14 403.00,678.38 C403.00,677.25 399.51,677.00 384.01,677.00 L 365.01 677.00 L 364.76 611.25 L 364.50 545.50 L 361.75 545.18 C360.24,545.01 359.00,544.51 359.00,544.07 C359.00,543.63 356.07,543.04 352.49,542.75 C343.72,542.05 336.02,538.15 328.41,530.57 C322.39,524.56 319.27,518.67 317.67,510.27 L 317.06 507.04 L 338.28 506.77 C353.74,506.57 359.44,506.18 359.28,505.34 C359.16,504.70 360.46,503.69 362.18,503.09 L 365.30 502.00 L 364.90 372.75 L 364.50 243.50 L 394.25 243.24 L 424.00 242.97 L 424.00 237.99 L 424.00 233.00 L 394.50 233.00 L 365.00 233.00 L 364.99 227.25 C364.97,218.10 364.02,214.00 361.93,214.00 C360.93,214.00 359.88,213.61 359.59,213.14 C359.30,212.67 356.10,211.98 352.48,211.61 C334.36,209.75 319.11,197.66 313.95,181.07 C312.88,177.64 312.00,173.74 312.00,172.41 L 312.00 170.00 L 335.50 170.00 C349.39,170.00 359.00,169.62 359.00,169.07 C359.00,168.55 360.24,167.99 361.75,167.82 C364.14,167.54 364.54,167.01 364.81,163.75 L 365.12 160.00 L 394.06 160.00 C421.01,160.00 423.00,159.88 423.00,158.24 C423.00,157.27 423.90,155.92 425.00,155.23 C426.91,154.04 427.00,152.90 427.00,130.99 C427.00,112.63 427.27,108.00 428.32,108.00 C431.49,108.00 440.88,111.42 445.15,114.13 C447.71,115.75 451.90,119.33 454.47,122.07 C461.49,129.58 463.95,135.75 466.51,152.25 C466.83,154.31 467.52,156.00 468.05,156.00 C468.57,156.00 469.00,156.90 469.00,158.00 C469.00,159.95 469.67,160.00 498.00,160.00 L 527.00 160.00 L 527.00 196.50 L 527.00 233.00 L 497.50 233.00 L 468.00 233.00 L 468.00 238.00 L 468.00 243.00 L 497.50 243.00 L 527.00 243.00 L 527.00 261.00 C527.00,278.33 527.07,279.00 529.00,279.00 C530.11,279.00 531.00,279.67 531.00,280.50 C531.00,281.79 534.18,282.00 553.63,282.00 L 576.26 282.00 L 575.75 286.54 C574.92,293.88 569.70,303.20 563.05,309.20 C556.30,315.30 548.21,318.89 538.82,319.97 C535.35,320.37 531.19,321.23 529.60,321.88 L 526.70 323.06 L 527.10 499.78 L 527.50 676.50 L 508.25 676.77 C492.81,676.99 489.00,677.31 489.00,678.40 C489.00,679.15 488.10,680.00 487.00,680.29 C485.08,680.79 485.00,681.65 485.00,702.53 L 485.00 724.26 L 480.75 723.61 C474.47,722.65 464.74,717.54 459.52,712.46 C454.15,707.25 448.49,696.18 447.49,688.96 C447.12,686.23 446.46,684.00 446.04,684.00 C445.61,684.00 444.95,686.31 444.58,689.14 C443.62,696.32 439.14,705.59 433.73,711.57 C428.73,717.09 418.08,722.78 410.95,723.73 L 407.00 724.26 L 407.00 702.54 ZM 101.66 656.75 C101.30,645.61 101.00,597.91 101.00,550.75 L 101.00 465.00 L 116.75 464.98 C125.41,464.96 164.34,464.85 203.25,464.73 L 274.00 464.50 L 274.00 462.25 C274.00,461.01 274.36,460.00 274.80,460.00 C275.23,460.00 276.12,456.38 276.77,451.95 C279.35,434.21 292.52,420.00 308.75,417.42 L 313.00 416.74 L 313.00 437.97 C313.00,458.35 313.08,459.21 315.00,459.71 C316.11,460.00 317.00,461.07 317.00,462.12 C317.00,463.89 318.05,464.00 335.50,464.00 L 354.00 464.00 L 354.00 482.50 C354.00,492.67 353.89,501.34 353.75,501.75 C353.61,502.16 350.35,502.52 346.50,502.56 C342.65,502.59 333.99,502.70 327.25,502.81 L 315.00 503.00 L 315.01 505.75 C315.09,522.70 332.72,542.30 349.95,544.59 L 354.65 545.21 L 354.87 611.11 L 355.09 677.00 L 228.71 677.00 L 102.32 677.00 L 101.66 656.75 ZM 794.50 657.00 C792.73,656.24 792.81,656.13 795.25,656.07 C796.76,656.03 798.00,656.45 798.00,657.00 C798.00,658.17 797.23,658.17 794.50,657.00 ZM 792.67 654.33 C791.55,653.21 791.87,582.00 793.00,582.00 C793.65,582.00 794.00,594.83 794.00,618.50 C794.00,638.58 793.85,655.00 793.67,655.00 C793.48,655.00 793.03,654.70 792.67,654.33 ZM 796.00 618.50 C796.00,594.83 796.35,582.00 797.00,582.00 C797.65,582.00 798.00,594.83 798.00,618.50 C798.00,642.17 797.65,655.00 797.00,655.00 C796.35,655.00 796.00,642.17 796.00,618.50 ZM 97.75 606.42 C96.64,605.31 96.82,535.23 97.93,534.54 C98.44,534.23 99.01,534.31 99.18,534.73 C99.87,536.38 98.45,607.12 97.75,606.42 ZM 94.00 569.94 C94.00,546.16 94.34,534.09 95.00,534.50 C95.64,534.89 96.00,548.01 96.00,570.56 C96.00,593.52 95.65,606.00 95.00,606.00 C94.35,606.00 94.00,593.31 94.00,569.94 ZM 792.00 540.66 L 792.00 503.32 L 761.84 502.66 C745.25,502.30 726.12,502.00 719.34,502.00 L 707.00 502.00 L 707.00 499.50 L 707.00 497.00 L 749.50 497.00 L 792.01 497.00 L 791.75 368.75 L 791.50 240.50 L 755.25 240.24 L 719.00 239.98 L 719.00 237.50 L 719.00 235.02 L 755.25 234.76 L 791.50 234.50 L 791.77 207.74 L 792.03 180.99 L 714.27 181.24 L 636.50 181.50 L 636.50 208.00 L 636.50 234.50 L 655.75 234.77 L 675.00 235.04 L 675.00 237.52 L 675.00 240.00 L 647.00 240.00 L 619.00 240.00 L 619.00 237.50 C619.00,235.11 619.27,235.00 625.00,235.00 L 631.00 235.00 L 631.00 205.66 L 631.00 176.33 L 713.65 175.65 C759.11,175.27 796.42,175.09 796.58,175.24 C796.73,175.40 797.18,266.08 797.58,376.76 L 798.31 578.00 L 795.16 578.00 L 792.00 578.00 L 792.00 540.66 ZM 94.00 324.00 L 94.00 118.00 L 139.85 118.00 L 185.70 118.00 L 186.34 127.75 C186.70,133.11 186.99,140.99 186.99,145.25 L 187.00 153.00 L 205.50 153.00 L 224.00 153.00 L 224.00 155.50 L 224.00 158.00 L 196.50 158.00 L 169.00 158.00 L 169.00 155.50 C169.00,153.11 169.27,153.00 175.00,153.00 L 181.00 153.00 L 181.00 138.50 L 181.00 124.00 L 140.00 124.00 L 99.00 124.00 L 99.00 138.50 L 99.00 153.00 L 108.50 153.00 C117.97,153.00 118.00,153.01 118.00,155.50 C118.00,157.99 117.97,158.00 108.50,158.00 L 99.00 158.00 L 99.00 307.50 L 99.00 457.00 L 185.00 457.00 L 271.00 457.00 L 271.00 459.50 L 271.00 462.00 L 185.00 462.00 L 99.00 462.00 L 99.00 496.00 L 99.00 530.00 L 96.50 530.00 L 94.00 530.00 L 94.00 324.00 ZM 356.77 481.75 L 356.50 462.50 L 338.25 462.23 L 320.00 461.95 L 320.00 459.48 L 320.00 457.00 L 335.75 456.86 C344.41,456.78 352.62,456.67 354.00,456.61 L 356.50 456.50 L 356.75 336.75 L 357.01 217.00 L 359.50 217.00 C361.98,217.00 362.00,217.07 362.00,226.00 L 362.00 235.00 L 392.00 235.00 L 422.00 235.00 L 422.00 237.49 L 422.00 239.97 L 392.25 240.24 L 362.50 240.50 L 362.25 370.75 L 361.99 501.00 L 359.52 501.00 L 357.04 501.00 L 356.77 481.75 ZM 537.66 443.84 C537.30,415.70 537.00,376.87 537.00,357.56 L 537.00 322.46 L 543.10 321.30 C561.53,317.80 576.73,301.63 577.83,284.35 L 578.23 278.00 L 557.62 278.00 L 537.00 278.00 L 537.00 260.50 L 537.00 243.00 L 606.00 243.00 C643.95,243.00 675.34,242.89 675.75,242.75 C676.16,242.61 676.62,250.54 676.77,260.37 L 677.05 278.24 L 682.27 277.81 C692.98,276.92 704.97,268.98 710.25,259.29 C711.68,256.65 713.62,251.75 714.55,248.38 L 716.25 242.27 L 752.46 242.07 L 788.67 241.88 L 789.33 308.69 C789.70,345.44 790.00,402.16 790.00,434.75 L 790.00 494.00 L 747.09 494.00 L 704.18 494.00 L 703.49 489.94 C702.46,483.87 696.23,472.18 691.50,467.45 C689.21,465.15 685.34,462.11 682.92,460.69 C678.20,457.93 668.37,455.00 663.81,455.00 L 661.04 455.00 L 660.77 474.75 L 660.50 494.50 L 599.41 494.76 L 538.33 495.02 L 537.66 443.84 ZM 187.29 454.24 L 101.07 453.99 L 101.02 307.53 L 100.97 161.08 L 110.23 160.79 L 119.50 160.50 L 119.80 156.40 L 120.10 152.29 L 131.30 149.05 C152.92,142.79 162.51,139.76 163.45,138.88 C165.40,137.07 160.77,138.13 141.16,144.00 C122.43,149.61 120.45,150.00 111.06,150.00 L 101.00 150.00 L 101.00 137.99 L 101.00 125.98 L 139.75 126.24 L 178.50 126.50 L 178.78 138.20 L 179.06 149.90 L 172.78 150.20 L 166.50 150.50 L 166.50 155.50 L 166.50 160.50 L 260.25 160.16 L 354.00 159.83 L 354.00 162.89 L 354.00 165.96 L 332.25 166.23 L 310.50 166.50 L 310.17 170.00 C309.67,175.30 312.80,185.38 316.94,191.79 C324.26,203.10 336.17,210.89 350.03,213.42 C354.14,214.17 356.71,214.83 355.75,214.89 C354.09,214.99 354.00,221.40 354.00,334.50 L 354.00 454.00 L 335.50 454.00 L 317.00 454.00 L 317.00 434.38 L 317.00 414.76 L 311.23 415.18 C303.51,415.74 293.77,420.41 287.41,426.60 C281.80,432.07 276.49,441.87 275.12,449.30 C274.64,451.93 274.07,454.18 273.87,454.30 C273.67,454.41 234.70,454.39 187.29,454.24 ZM 529.67 276.33 C529.30,275.97 529.00,267.57 529.00,257.68 L 529.00 239.70 L 499.50 240.24 L 470.00 240.78 L 470.00 237.89 L 470.00 235.00 L 499.50 235.00 L 529.00 235.00 L 529.00 196.52 L 529.00 158.03 L 500.25 157.77 L 471.50 157.50 L 471.50 155.00 L 471.50 152.50 L 503.25 152.24 L 535.00 151.97 L 535.00 193.49 L 535.00 235.00 L 544.00 235.00 C552.90,235.00 553.00,235.03 553.00,237.46 C553.00,239.87 552.80,239.93 544.25,240.21 L 535.50 240.50 L 535.23 258.75 L 534.95 277.00 L 532.64 277.00 C531.37,277.00 530.03,276.70 529.67,276.33 ZM 681.00 257.05 C681.00,240.07 680.82,238.00 679.26,237.12 C678.30,236.59 677.51,235.33 677.51,234.32 C677.50,232.63 676.11,232.48 658.25,232.23 L 639.00 231.96 L 639.00 207.98 L 639.00 184.00 L 663.75 183.99 C677.36,183.99 711.11,183.69 738.75,183.34 L 789.00 182.70 L 789.00 207.35 L 789.00 232.00 L 753.41 232.00 C718.65,232.00 717.80,232.05 717.29,234.00 C717.00,235.10 716.21,236.00 715.52,236.00 C714.71,236.00 714.09,238.27 713.75,242.55 C712.68,255.85 702.74,269.33 690.69,273.84 C680.36,277.71 681.00,278.81 681.00,257.05 ZM 558.50 240.00 C558.09,239.34 567.49,239.00 585.94,239.00 C603.98,239.00 614.00,239.36 614.00,240.00 C614.00,240.64 604.19,241.00 586.56,241.00 C569.34,241.00 558.89,240.63 558.50,240.00 ZM 558.00 236.09 C558.00,235.21 605.58,234.11 611.25,234.86 C612.76,235.06 614.00,235.63 614.00,236.11 C614.00,236.61 601.61,237.00 586.00,237.00 C569.84,237.00 558.00,236.62 558.00,236.09 ZM 356.00 161.50 L 356.00 158.00 L 335.50 158.00 L 315.00 158.00 L 315.00 155.00 L 315.00 152.00 L 367.50 152.00 L 420.00 152.00 L 420.00 155.00 L 420.00 158.00 L 391.00 158.00 L 362.00 158.00 L 362.00 161.50 C362.00,164.72 361.76,165.00 359.00,165.00 C356.24,165.00 356.00,164.72 356.00,161.50 ZM 226.00 155.06 C226.00,153.38 226.45,152.00 227.00,152.00 C227.55,152.00 228.00,153.10 228.00,154.44 C228.00,155.78 227.55,157.16 227.00,157.50 C226.42,157.86 226.00,156.84 226.00,155.06 ZM 229.50 157.00 C229.90,156.36 244.51,156.00 270.06,156.00 C296.02,156.00 310.00,156.35 310.00,157.00 C310.00,157.65 295.81,158.00 269.44,158.00 C242.66,158.00 229.09,157.66 229.50,157.00 ZM 229.00 153.00 C229.00,152.35 243.17,152.00 269.50,152.00 C295.83,152.00 310.00,152.35 310.00,153.00 C310.00,153.65 295.83,154.00 269.50,154.00 C243.17,154.00 229.00,153.65 229.00,153.00 Z" fill="rgb(234,230,215)"/>
</g>
</svg>